<?xml version="1.0" encoding="UTF-8" standalone="no"?>
<svg
   xmlns:dc="http://purl.org/dc/elements/1.1/"
   xmlns:cc="http://creativecommons.org/ns#"
   xmlns:rdf="http://www.w3.org/1999/02/22-rdf-syntax-ns#"
   xmlns:svg="http://www.w3.org/2000/svg"
   xmlns="http://www.w3.org/2000/svg"
   xmlns:sodipodi="http://sodipodi.sourceforge.net/DTD/sodipodi-0.dtd"
   xmlns:inkscape="http://www.inkscape.org/namespaces/inkscape"
   width="210mm"
   height="297mm"
   viewBox="0 0 210 297"
   version="1.1"
   id="svg1377"
   inkscape:version="1.0.1 (3bc2e813f5, 2020-09-07)"
   sodipodi:docname="1_1 homoeo.svg">
  <defs
     id="defs1371">
    <marker
       style="overflow:visible;"
       id="Arrow1Lend"
       refX="0.0"
       refY="0.0"
       orient="auto"
       inkscape:stockid="Arrow1Lend"
       inkscape:isstock="true">
      <path
         transform="scale(0.8) rotate(180) translate(12.5,0)"
         style="fill-rule:evenodd;stroke:#0000fe;stroke-width:1pt;stroke-opacity:1;fill:#0000fe;fill-opacity:1"
         d="M 0.0,0.0 L 5.0,-5.0 L -12.5,0.0 L 5.0,5.0 L 0.0,0.0 z "
         id="path854" />
    </marker>
  </defs>
  <sodipodi:namedview
     id="base"
     pagecolor="#ffffff"
     bordercolor="#666666"
     borderopacity="1.0"
     inkscape:pageopacity="0.0"
     inkscape:pageshadow="2"
     inkscape:zoom="2.8"
     inkscape:cx="477.22422"
     inkscape:cy="357.49914"
     inkscape:document-units="mm"
     inkscape:current-layer="layer1"
     inkscape:document-rotation="0"
     showgrid="false"
     inkscape:window-width="2560"
     inkscape:window-height="1387"
     inkscape:window-x="8"
     inkscape:window-y="1912"
     inkscape:window-maximized="1"
     inkscape:object-paths="true" />
  <metadata
     id="metadata1374">
    <rdf:RDF>
      <cc:Work
         rdf:about="">
        <dc:format>image/svg+xml</dc:format>
        <dc:type
           rdf:resource="http://purl.org/dc/dcmitype/StillImage" />
        <dc:title></dc:title>
      </cc:Work>
    </rdf:RDF>
  </metadata>
  <g
     inkscape:label="Layer 1"
     inkscape:groupmode="layer"
     id="layer1">
    <path
       style="fill:none;stroke:#000000;stroke-width:0.264583px;stroke-linecap:butt;stroke-linejoin:miter;stroke-opacity:1"
       d="m 17.10525,50.781209 c 12.322679,-14.617385 34.200045,-2.671649 50.24667,-4.276313 10.625828,-1.062582 19.571369,-6.335492 29.666916,-8.018084 8.891734,-1.481957 14.568964,3.181062 22.717914,4.81085 20.6666,4.133321 29.87193,-0.983419 45.16855,17.372521 3.86895,4.642744 7.60597,10.902862 6.68173,17.372517 -1.31555,9.208868 -17.77759,9.354434 -24.58879,9.354434 -13.32204,0 -26.79714,-0.03509 -39.02135,-6.1472 C 101.64254,78.082761 96.296399,73.074728 89.000752,72.162772 73.228548,70.191245 52.717263,86.72786 37.685003,76.706353 32.713689,73.392145 6.2948936,58.888976 17.10525,50.781209 Z"
       id="path1381" />
    <path
       style="fill:none;stroke:#000000;stroke-width:0.264583px;stroke-linecap:butt;stroke-linejoin:miter;stroke-opacity:1"
       d="m 110.11504,59.601105 c 12.75443,3.999507 23.96676,11.0018 37.41774,4.276312 2.89542,-1.447716 5.37515,-1.999655 5.87993,-2.672697"
       id="path1383" />
    <path
       style="fill:none;stroke:#000000;stroke-width:0.264583px;stroke-linecap:butt;stroke-linejoin:miter;stroke-opacity:1"
       d="m 115.45526,61.434733 c 11.85009,-9.502275 24.32166,-0.870757 32.31374,2.326074"
       id="path1385"
       sodipodi:nodetypes="cc" />
    <path
       style="fill:none;stroke:#0000ff;stroke-width:0.264583px;stroke-linecap:butt;stroke-linejoin:miter;stroke-opacity:1"
       d="m 119.13539,68.755085 c 2.7509,-2.857494 8.34295,-0.410377 12.2944,0.467722 5.79412,1.287582 11.62299,-1.492795 17.37252,-0.53454 5.40574,0.900959 9.44282,6.27694 4.00904,10.623965 -3.00794,2.406356 -10.40508,5.196586 -14.2321,4.877668 -3.31404,-0.27617 -6.10906,-2.371072 -9.28762,-3.006781 -2.04825,-0.409652 -4.38852,0.660181 -6.48128,-0.734991 -0.50182,-0.334547 -0.89256,-1.50051 -1.20272,-2.004523 -2.45293,-3.986017 -5.26518,-6.968587 -2.47224,-9.68852 z"
       id="path1387"
       sodipodi:nodetypes="csssssssc" />
    <path
       style="fill:none;stroke:#0000ff;stroke-width:0.264583px;stroke-linecap:butt;stroke-linejoin:miter;stroke-opacity:1"
       d="m 143.3901,101.16152 c -4.56525,-2.922791 -9.90217,-3.741779 -15.23436,-3.741779 -7.36316,0 -18.29365,-0.904426 -21.64884,7.483549 -0.79336,1.98341 -1.53659,3.94285 -0.80181,6.14719 1.691,5.07297 16.70861,7.36141 21.38157,7.75082 5.90807,0.49234 14.89439,-1.31282 16.57071,-8.01808 0.29257,-1.1703 0.58476,-2.77315 1.06907,-3.74178 1.03046,-2.0609 0.45185,-5.16465 -1.33634,-5.87992 z"
       id="path1389" />
    <path
       style="fill:none;stroke:#0000fe;stroke-width:0.264583px;stroke-linecap:butt;stroke-linejoin:miter;stroke-opacity:1;marker-end:url(#Arrow1Lend)"
       d="m 132.43205,79.245414 c -5.26546,4.466743 -5.19402,15.279301 -6.41447,21.381566"
       id="path1391" />
    <text
       xml:space="preserve"
       style="font-style:normal;font-weight:normal;font-size:18.4552px;line-height:1.25;font-family:sans-serif;fill:#000000;fill-opacity:1;stroke:none;stroke-width:0.46138"
       x="59.749481"
       y="63.818241"
       id="text1395"><tspan
         sodipodi:role="line"
         id="tspan1393"
         x="59.749481"
         y="63.818241"
         style="stroke-width:0.46138">$M$</tspan></text>
    <text
       xml:space="preserve"
       style="font-style:normal;font-weight:normal;font-size:5.01212px;line-height:1.25;font-family:sans-serif;fill:#0000ff;fill-opacity:1;stroke:none;stroke-width:0.125303"
       x="120.01578"
       y="93.556816"
       id="text1399"><tspan
         sodipodi:role="line"
         id="tspan1397"
         x="120.01578"
         y="93.556816"
         style="fill:#0000ff;fill-opacity:1;stroke-width:0.125303">$\varphi$</tspan></text>
    <text
       xml:space="preserve"
       style="font-style:normal;font-weight:normal;font-size:5.59212px;line-height:1.25;font-family:sans-serif;fill:#0000ff;fill-opacity:1;stroke:none;stroke-width:0.139804"
       x="147.67982"
       y="109.11137"
       id="text1403"><tspan
         sodipodi:role="line"
         id="tspan1401"
         x="147.67982"
         y="109.11137"
         style="fill:#0000ff;fill-opacity:1;stroke-width:0.139804">$\subset\R^2$</tspan></text>
  </g>
</svg>
