<?xml version="1.0" encoding="UTF-8" standalone="no"?>
<svg
   xmlns:dc="http://purl.org/dc/elements/1.1/"
   xmlns:cc="http://creativecommons.org/ns#"
   xmlns:rdf="http://www.w3.org/1999/02/22-rdf-syntax-ns#"
   xmlns:svg="http://www.w3.org/2000/svg"
   xmlns="http://www.w3.org/2000/svg"
   xmlns:sodipodi="http://sodipodi.sourceforge.net/DTD/sodipodi-0.dtd"
   xmlns:inkscape="http://www.inkscape.org/namespaces/inkscape"
   width="210mm"
   height="297mm"
   viewBox="0 0 210 297"
   version="1.1"
   id="svg1956"
   inkscape:version="1.0.1 (3bc2e813f5, 2020-09-07)"
   sodipodi:docname="1_10.svg">
  <defs
     id="defs1950">
    <marker
       style="overflow:visible;"
       id="marker2613"
       refX="0.0"
       refY="0.0"
       orient="auto"
       inkscape:stockid="Arrow1Mend"
       inkscape:isstock="true">
      <path
         transform="scale(0.4) rotate(180) translate(10,0)"
         style="fill-rule:evenodd;stroke:#000000;stroke-width:1pt;stroke-opacity:1;fill:#000000;fill-opacity:1"
         d="M 0.0,0.0 L 5.0,-5.0 L -12.5,0.0 L 5.0,5.0 L 0.0,0.0 z "
         id="path2611" />
    </marker>
    <marker
       style="overflow:visible;"
       id="Arrow1Mend"
       refX="0.0"
       refY="0.0"
       orient="auto"
       inkscape:stockid="Arrow1Mend"
       inkscape:isstock="true"
       inkscape:collect="always">
      <path
         transform="scale(0.4) rotate(180) translate(10,0)"
         style="fill-rule:evenodd;stroke:#000000;stroke-width:1pt;stroke-opacity:1;fill:#000000;fill-opacity:1"
         d="M 0.0,0.0 L 5.0,-5.0 L -12.5,0.0 L 5.0,5.0 L 0.0,0.0 z "
         id="path1547" />
    </marker>
    <marker
       style="overflow:visible"
       id="Arrow1Mstart"
       refX="0.0"
       refY="0.0"
       orient="auto"
       inkscape:stockid="Arrow1Mstart"
       inkscape:isstock="true">
      <path
         transform="scale(0.4) translate(10,0)"
         style="fill-rule:evenodd;stroke:#000000;stroke-width:1pt;stroke-opacity:1;fill:#000000;fill-opacity:1"
         d="M 0.0,0.0 L 5.0,-5.0 L -12.5,0.0 L 5.0,5.0 L 0.0,0.0 z "
         id="path1544" />
    </marker>
    <marker
       style="overflow:visible;"
       id="Arrow1Lend"
       refX="0.0"
       refY="0.0"
       orient="auto"
       inkscape:stockid="Arrow1Lend"
       inkscape:isstock="true">
      <path
         transform="scale(0.8) rotate(180) translate(12.5,0)"
         style="fill-rule:evenodd;stroke:#000000;stroke-width:1pt;stroke-opacity:1;fill:#000000;fill-opacity:1"
         d="M 0.0,0.0 L 5.0,-5.0 L -12.5,0.0 L 5.0,5.0 L 0.0,0.0 z "
         id="path1541" />
    </marker>
  </defs>
  <sodipodi:namedview
     id="base"
     pagecolor="#ffffff"
     bordercolor="#666666"
     borderopacity="1.0"
     inkscape:pageopacity="0.0"
     inkscape:pageshadow="2"
     inkscape:zoom="1.979899"
     inkscape:cx="297.07468"
     inkscape:cy="177.58705"
     inkscape:document-units="mm"
     inkscape:current-layer="layer1"
     inkscape:document-rotation="0"
     showgrid="false"
     inkscape:object-paths="true"
     inkscape:window-width="2560"
     inkscape:window-height="1387"
     inkscape:window-x="8"
     inkscape:window-y="1912"
     inkscape:window-maximized="1" />
  <metadata
     id="metadata1953">
    <rdf:RDF>
      <cc:Work
         rdf:about="">
        <dc:format>image/svg+xml</dc:format>
        <dc:type
           rdf:resource="http://purl.org/dc/dcmitype/StillImage" />
        <dc:title></dc:title>
      </cc:Work>
    </rdf:RDF>
  </metadata>
  <g
     inkscape:label="Layer 1"
     inkscape:groupmode="layer"
     id="layer1">
    <path
       style="fill:none;stroke:#000000;stroke-width:0.419;stroke-linecap:butt;stroke-linejoin:miter;stroke-opacity:1;stroke-miterlimit:4;stroke-dasharray:none"
       d="m 22.317005,18.307962 c 2.410696,-1.810443 5.172843,-2.81005 8.151721,-3.207234 7.435564,-0.991409 15.372564,2.255943 22.584274,3.608139 7.830172,1.468157 25.652307,0.428745 33.809596,-1.202713"
       id="path2519" />
    <path
       style="fill:none;stroke:#000000;stroke-width:0.419;stroke-linecap:butt;stroke-linejoin:miter;stroke-opacity:1;stroke-miterlimit:4;stroke-dasharray:none"
       d="m 22.317005,63.743781 c 0.723643,-2.22336 1.132394,-4.635053 2.004522,-6.815373 3.652104,-9.130257 0.873923,-15.798641 -0.400905,-24.722431 -0.361697,-2.53188 -0.442315,-5.285176 -0.935443,-7.750816 -0.401371,-2.006853 -1.08703,-4.052911 -0.668174,-6.147199"
       id="path2521" />
    <path
       style="fill:none;stroke:#000000;stroke-width:0.419;stroke-linecap:butt;stroke-linejoin:miter;stroke-opacity:1;stroke-miterlimit:4;stroke-dasharray:none"
       d="m 86.862596,17.506154 c 1.565952,12.693072 -2.446867,24.966892 -0.668173,37.417734 0.375687,2.62981 -0.893638,6.184894 0,8.418988"
       id="path2523" />
    <path
       style="fill:none;stroke:#000000;stroke-width:0.419;stroke-linecap:butt;stroke-linejoin:miter;stroke-opacity:1;stroke-miterlimit:4;stroke-dasharray:none"
       d="m 22.317005,63.743781 c 15.878006,-4.006607 33.189704,-3.095498 49.444863,-1.469983 3.777083,0.377709 11.005224,2.211528 14.432555,1.069078"
       id="path2525" />
    <path
       style="fill:none;stroke:#000000;stroke-width:0.419;stroke-linecap:butt;stroke-linejoin:miter;stroke-opacity:1;stroke-miterlimit:4;stroke-dasharray:none"
       d="m 37.417734,38.085908 c 1.535944,-1.583841 3.14623,-2.858627 4.409946,-4.543584 1.289021,-1.718691 2.379826,-4.664416 4.543583,-5.746295 10.97928,-5.489638 22.22168,0.571945 20.178848,12.82894 -0.593519,3.561122 -1.129255,7.210964 -4.142677,9.621702 -1.922103,1.537682 -4.886981,1.939033 -7.216277,2.271792 -3.570849,0.510119 -6.780993,0.787627 -10.423512,0.267269 -6.600558,-0.942938 -9.221007,-10.022089 -7.349911,-14.699824 z"
       id="path2529" />
    <path
       style="fill:none;stroke:#000000;stroke-width:0.419;stroke-linecap:butt;stroke-linejoin:miter;stroke-opacity:1;marker-end:url(#marker2613);stroke-miterlimit:4;stroke-dasharray:none"
       d="m 94.88068,43.030393 c 9.66726,-3.034413 20.65768,-1.336346 30.736,-1.336346"
       id="path2531" />
    <path
       style="fill:none;stroke:#000000;stroke-width:0.419;stroke-linecap:butt;stroke-linejoin:miter;stroke-opacity:1;stroke-miterlimit:4;stroke-dasharray:none;marker-start:url(#Arrow1Mstart)"
       d="m 159.02537,17.639789 c 0.96692,17.391041 1.60839,32.39961 2.27179,47.306706"
       id="path2533"
       sodipodi:nodetypes="cc" />
    <path
       style="fill:none;stroke:#0000ff;stroke-width:0.419;stroke-linecap:butt;stroke-linejoin:miter;stroke-opacity:1;stroke-miterlimit:4;stroke-dasharray:none"
       d="m 152.6109,42.896758 c 8.23037,-0.400208 13.13783,-0.728675 23.11881,-0.668174"
       id="path2537"
       sodipodi:nodetypes="cc" />
    <path
       style="fill:none;stroke:#000000;stroke-width:0.419;stroke-linecap:butt;stroke-linejoin:miter;stroke-opacity:1;stroke-miterlimit:4;stroke-dasharray:none"
       d="m 134.83748,42.629489 c 5.91958,0.259817 12.04307,0.613052 17.77342,0.267269"
       id="path2539"
       sodipodi:nodetypes="cc" />
    <path
       style="fill:none;stroke:#000000;stroke-width:0.419;stroke-linecap:butt;stroke-linejoin:miter;stroke-opacity:1;marker-end:url(#Arrow1Mend);stroke-miterlimit:4;stroke-dasharray:none"
       d="m 175.72971,42.228584 c 6.48819,-0.196049 12.91747,-0.400903 19.31022,-0.400903"
       id="path2541"
       sodipodi:nodetypes="cc" />
    <path
       style="fill:none;stroke:#000000;stroke-width:0.419;stroke-linecap:butt;stroke-linejoin:miter;stroke-opacity:1;stroke-miterlimit:4;stroke-dasharray:none"
       d="m 152.6109,42.896758 c 0.93268,-2.270128 4.45926,-4.187905 6.94901,-4.543581 2.39997,-0.342855 4.66081,-0.267269 7.08264,-0.267269 5.28009,0 9.35443,0.810151 9.35443,5.879928 0,1.017357 -0.81018,2.877338 -1.73725,3.34087 -4.52119,2.260592 -22.99356,3.658438 -21.64883,-4.409948 z"
       id="path2543" />
    <path
       style="fill:none;stroke:#000000;stroke-width:0.419;stroke-linecap:butt;stroke-linejoin:miter;stroke-opacity:1;stroke-miterlimit:4;stroke-dasharray:none"
       d="m 23.273641,26.235622 c 1.51295,-0.45051 5.094711,-1.895204 7.195085,-0.845017 1.312844,0.656422 2.255379,2.756315 3.608138,3.207233 2.822459,0.940822 5.346206,3.188073 8.237144,4.233164"
       id="path2545" />
    <path
       style="fill:none;stroke:#0000ff;stroke-width:0.419;stroke-linecap:butt;stroke-linejoin:miter;stroke-opacity:1;stroke-miterlimit:4;stroke-dasharray:none"
       d="M 64.756492,47.342723 C 63.715638,46.67896 62.490873,46.003604 62.006529,45.034914 61.627083,44.27602 61.480159,43.188535 61.20472,42.36222 59.980125,38.68843 50.683853,39.173123 47.70761,37.685003 45.107489,36.384941 43.896777,33.516837 42.314008,32.831002"
       id="path2547"
       sodipodi:nodetypes="csssc" />
    <path
       style="fill:none;stroke:#000000;stroke-width:0.419;stroke-linecap:butt;stroke-linejoin:miter;stroke-opacity:1;stroke-miterlimit:4;stroke-dasharray:none"
       d="M 86.020782,53.547869 C 77.477759,56.740146 70.441525,49.567573 64.756492,47.342723"
       id="path2549" />
    <text
       xml:space="preserve"
       style="font-size:3.52777px;line-height:1.25;font-family:sans-serif;-inkscape-font-specification:'sans-serif, Normal';stroke-width:0.264583"
       x="50.914845"
       y="32.205978"
       id="text2653"><tspan
         sodipodi:role="line"
         id="tspan2651"
         x="50.914845"
         y="32.205978"
         style="stroke-width:0.264583">$U$</tspan></text>
    <text
       xml:space="preserve"
       style="font-size:3.52777px;line-height:1.25;font-family:sans-serif;-inkscape-font-specification:'sans-serif, Normal';stroke-width:0.264583"
       x="73.23185"
       y="50.781208"
       id="text2657"><tspan
         sodipodi:role="line"
         id="tspan2655"
         x="73.23185"
         y="50.781208"
         style="stroke-width:0.264583">$N$</tspan></text>
    <text
       xml:space="preserve"
       style="font-size:3.52777px;line-height:1.25;font-family:sans-serif;-inkscape-font-specification:'sans-serif, Normal';stroke-width:0.264583"
       x="88.867119"
       y="20.980658"
       id="text2661"><tspan
         sodipodi:role="line"
         id="tspan2659"
         x="88.867119"
         y="20.980658"
         style="stroke-width:0.264583">$M$</tspan></text>
    <text
       xml:space="preserve"
       style="font-size:3.52777px;line-height:1.25;font-family:sans-serif;-inkscape-font-specification:'sans-serif, Normal';stroke-width:0.264583"
       x="101.56242"
       y="38.887714"
       id="text2665"><tspan
         sodipodi:role="line"
         id="tspan2663"
         x="101.56242"
         y="38.887714"
         style="stroke-width:0.264583">$\varphi$</tspan></text>
    <text
       xml:space="preserve"
       style="font-size:3.52777px;line-height:1.25;font-family:sans-serif;-inkscape-font-specification:'sans-serif, Normal';stroke-width:0.264583"
       x="161.56442"
       y="16.83798"
       id="text2669"><tspan
         sodipodi:role="line"
         id="tspan2667"
         x="161.56442"
         y="16.83798"
         style="stroke-width:0.264583">$\R^k$</tspan></text>
    <text
       xml:space="preserve"
       style="font-size:3.52777px;line-height:1.25;font-family:sans-serif;-inkscape-font-specification:'sans-serif, Normal';stroke-width:0.264583"
       x="186.42049"
       y="48.643051"
       id="text2673"><tspan
         sodipodi:role="line"
         id="tspan2671"
         x="186.42049"
         y="48.643051"
         style="stroke-width:0.264583">$\R^n$</tspan></text>
  </g>
</svg>
