<?xml version="1.0" encoding="UTF-8" standalone="no"?>
<svg
   xmlns:dc="http://purl.org/dc/elements/1.1/"
   xmlns:cc="http://creativecommons.org/ns#"
   xmlns:rdf="http://www.w3.org/1999/02/22-rdf-syntax-ns#"
   xmlns:svg="http://www.w3.org/2000/svg"
   xmlns="http://www.w3.org/2000/svg"
   xmlns:sodipodi="http://sodipodi.sourceforge.net/DTD/sodipodi-0.dtd"
   xmlns:inkscape="http://www.inkscape.org/namespaces/inkscape"
   width="210mm"
   height="297mm"
   viewBox="0 0 210 297"
   version="1.1"
   id="svg3388"
   inkscape:version="1.0.1 (3bc2e813f5, 2020-09-07)"
   sodipodi:docname="1_4.svg">
  <defs
     id="defs3382">
    <marker
       style="overflow:visible;"
       id="marker4057"
       refX="0.0"
       refY="0.0"
       orient="auto"
       inkscape:stockid="Arrow1Lend"
       inkscape:isstock="true">
      <path
         transform="scale(0.8) rotate(180) translate(12.5,0)"
         style="fill-rule:evenodd;stroke:#0000ff;stroke-width:1pt;stroke-opacity:1;fill:#0000ff;fill-opacity:1"
         d="M 0.0,0.0 L 5.0,-5.0 L -12.5,0.0 L 5.0,5.0 L 0.0,0.0 z "
         id="path4055" />
    </marker>
    <marker
       style="overflow:visible;"
       id="marker4029"
       refX="0.0"
       refY="0.0"
       orient="auto"
       inkscape:stockid="Arrow1Lend"
       inkscape:isstock="true"
       inkscape:collect="always">
      <path
         transform="scale(0.8) rotate(180) translate(12.5,0)"
         style="fill-rule:evenodd;stroke:#000000;stroke-width:1pt;stroke-opacity:1;fill:#000000;fill-opacity:1"
         d="M 0.0,0.0 L 5.0,-5.0 L -12.5,0.0 L 5.0,5.0 L 0.0,0.0 z "
         id="path4027" />
    </marker>
    <marker
       style="overflow:visible;"
       id="Arrow1Lend"
       refX="0.0"
       refY="0.0"
       orient="auto"
       inkscape:stockid="Arrow1Lend"
       inkscape:isstock="true"
       inkscape:collect="always">
      <path
         transform="scale(0.8) rotate(180) translate(12.5,0)"
         style="fill-rule:evenodd;stroke:#ff0000;stroke-width:1pt;stroke-opacity:1;fill:#ff0000;fill-opacity:1"
         d="M 0.0,0.0 L 5.0,-5.0 L -12.5,0.0 L 5.0,5.0 L 0.0,0.0 z "
         id="path864" />
    </marker>
  </defs>
  <sodipodi:namedview
     id="base"
     pagecolor="#ffffff"
     bordercolor="#666666"
     borderopacity="1.0"
     inkscape:pageopacity="0.0"
     inkscape:pageshadow="2"
     inkscape:zoom="3.959798"
     inkscape:cx="354.70226"
     inkscape:cy="403.70199"
     inkscape:document-units="mm"
     inkscape:current-layer="layer1"
     inkscape:document-rotation="0"
     showgrid="false"
     inkscape:object-paths="true"
     inkscape:window-width="2560"
     inkscape:window-height="1387"
     inkscape:window-x="8"
     inkscape:window-y="1912"
     inkscape:window-maximized="1" />
  <metadata
     id="metadata3385">
    <rdf:RDF>
      <cc:Work
         rdf:about="">
        <dc:format>image/svg+xml</dc:format>
        <dc:type
           rdf:resource="http://purl.org/dc/dcmitype/StillImage" />
        <dc:title></dc:title>
      </cc:Work>
    </rdf:RDF>
  </metadata>
  <g
     inkscape:label="Layer 1"
     inkscape:groupmode="layer"
     id="layer1">
    <path
       style="fill:none;stroke:#000000;stroke-width:0.401;stroke-linecap:butt;stroke-linejoin:miter;stroke-opacity:1;stroke-miterlimit:4;stroke-dasharray:none"
       d="M 66.015573,46.237628 C 35.476751,31.476532 4.8699843,67.048123 32.874151,91.940718 c 12.155307,10.804712 29.878617,8.285352 44.90128,8.285352 9.04212,0 18.254784,2.35418 27.261489,1.60362 17.92059,-1.49338 25.60201,-22.350969 20.57976,-37.417736 C 118.40365,42.772875 79.494665,56.346947 66.015573,46.237628 Z"
       id="path3951" />
    <path
       style="fill:none;stroke:#ff0000;stroke-width:0.365;stroke-linecap:butt;stroke-linejoin:miter;stroke-opacity:1;stroke-miterlimit:4;stroke-dasharray:none"
       d="m 69.490076,124.5476 c -3.634404,-3.20041 -9.52373,-5.61266 -14.432555,-5.61266 -8.413827,0 -20.847021,0.91105 -20.847021,12.02713 0,2.40588 0.270973,4.18969 2.405425,5.61266 5.008645,3.33909 44.808769,7.03125 38.219541,-6.1472 -1.280903,-2.56181 -3.61065,-3.56695 -5.34539,-5.87993 z"
       id="path3953" />
    <path
       style="fill:none;stroke:#0000ff;stroke-width:0.365;stroke-linecap:butt;stroke-linejoin:miter;stroke-opacity:1;stroke-miterlimit:4;stroke-dasharray:none"
       d="m 136.04019,121.8749 c -6.65497,-1.48234 -13.93405,-0.80181 -20.84702,-0.80181 -15.10991,0 -22.854998,17.439 -2.13816,19.51068 7.29012,0.72901 18.56727,0.9853 24.85606,-3.20723 5.31667,-3.54445 4.05089,-14.31728 -1.87088,-15.50164 z"
       id="path3955" />
    <path
       style="fill:none;stroke:#000000;stroke-width:0.401;stroke-linecap:butt;stroke-linejoin:miter;stroke-opacity:1;stroke-miterlimit:4;stroke-dasharray:none"
       d="m 40.357697,69.222807 c 15.5405,8.273955 36.165575,7.666627 48.108515,-4.276312"
       id="path3957" />
    <path
       style="fill:none;stroke:#000000;stroke-width:0.401;stroke-linecap:butt;stroke-linejoin:miter;stroke-opacity:1;stroke-miterlimit:4;stroke-dasharray:none"
       d="M 46.052464,71.778121 C 50.460983,60.059196 76.434248,60.505355 81.832952,69.985839"
       id="path3959" />
    <path
       style="fill:none;stroke:#0000ff;stroke-width:0.264583px;stroke-linecap:butt;stroke-linejoin:miter;stroke-opacity:1"
       d="m 69.490076,124.5476 c -5.837359,2.59987 -5.236866,9.04817 -4.540385,14.79229"
       id="path3961" />
    <path
       style="fill:none;stroke:#ff0000;stroke-width:0.264583px;stroke-linecap:butt;stroke-linejoin:miter;stroke-opacity:1"
       d="m 114.89768,121.07532 c 3.77077,9.32796 4.90727,13.21747 -0.0489,19.67007"
       id="path3963"
       sodipodi:nodetypes="cc" />
    <path
       style="fill:#ff0000;stroke:#ff0000;stroke-width:0.401;stroke-linecap:butt;stroke-linejoin:miter;stroke-opacity:1;stroke-miterlimit:4;stroke-dasharray:none;fill-opacity:0.39117646"
       d="m 81.249934,86.595325 c -0.873879,-1.620333 -3.27647,-5.879928 -5.879928,-5.879928 -2.243447,0 -4.719994,-0.80181 -7.216277,-0.80181 -4.398978,0 -7.544697,0.717992 -8.819893,4.543582 -5.226802,15.680401 23.972845,12.421883 21.916098,2.138156 z"
       id="path3965" />
    <g
       id="g3976"
       style="stroke-width:0.401;stroke-miterlimit:4;stroke-dasharray:none;stroke:#0000ff;stroke-opacity:1;fill:#0000ff;fill-opacity:0.39117646">
      <path
         style="fill:#0000ff;stroke:#0000ff;stroke-width:0.401;stroke-linecap:butt;stroke-linejoin:miter;stroke-opacity:1;stroke-miterlimit:4;stroke-dasharray:none;fill-opacity:0.39117646"
         d="m 77.572631,81.638364 c 1.885892,-3.611938 5.580046,-6.802898 9.824503,-6.802898 6.144151,0 15.345126,11.114556 10.423511,16.036173 -7.952644,7.952645 -30.552556,2.042399 -20.248014,-9.233275 z"
         id="path3967" />
    </g>
    <path
       style="fill:none;stroke:#0000ff;stroke-width:0.264583px;stroke-linecap:butt;stroke-linejoin:miter;stroke-opacity:1"
       d="m 65.267334,128.95253 c 1.611318,-1.22447 4.681709,-1.40088 5.85389,-2.64175"
       id="path3983" />
    <path
       style="fill:none;stroke:#0000ff;stroke-width:0.264583px;stroke-linecap:butt;stroke-linejoin:miter;stroke-opacity:1"
       d="m 64.661941,131.44521 c 2.62469,-1.58128 6.27956,-1.54528 8.560786,-3.21066"
       id="path3985" />
    <path
       style="fill:none;stroke:#0000ff;stroke-width:0.264583px;stroke-linecap:butt;stroke-linejoin:miter;stroke-opacity:1"
       d="m 64.524601,134.37171 c 3.57228,-0.86117 7.204749,-2.369 10.324748,-3.9163"
       id="path3987" />
    <path
       style="fill:none;stroke:#0000ff;stroke-width:0.264583px;stroke-linecap:butt;stroke-linejoin:miter;stroke-opacity:1"
       d="m 64.77088,137.79639 c 3.046511,-1.59378 7.836355,-0.86017 10.362256,-2.84432"
       id="path3991" />
    <path
       style="fill:none;stroke:#ff0000;stroke-width:0.264583px;stroke-linecap:butt;stroke-linejoin:miter;stroke-opacity:1"
       d="m 110.89489,121.56518 c -3.11923,2.84918 -8.41724,5.93823 -10.31393,8.94686"
       id="path3995" />
    <path
       style="fill:none;stroke:#ff0000;stroke-width:0.264583px;stroke-linecap:butt;stroke-linejoin:miter;stroke-opacity:1"
       d="m 114.89768,121.07532 c -1.00779,0.75441 -1.9211,1.62791 -2.91175,2.4032 -2.14647,1.67985 -4.61839,3.14841 -6.5481,5.07812 -1.65368,1.65368 -3.09946,3.84424 -4.77412,5.01954"
       id="path3997" />
    <path
       style="fill:none;stroke:#f90000;stroke-width:0.264583px;stroke-linecap:butt;stroke-linejoin:miter;stroke-opacity:1"
       d="m 116.17085,124.30589 c -2.60487,3.53622 -5.82644,6.63449 -9.32986,9.26206 -1.461,1.09574 -3.20044,1.87017 -4.37398,3.03613"
       id="path3999" />
    <path
       style="fill:none;stroke:#f90000;stroke-width:0.264583px;stroke-linecap:butt;stroke-linejoin:miter;stroke-opacity:1"
       d="m 117.69048,129.00215 c -0.89721,2.34242 -11.73703,7.41523 -12.58068,9.48993"
       id="path4001" />
    <path
       style="fill:none;stroke:#f90000;stroke-width:0.264583px;stroke-linecap:butt;stroke-linejoin:miter;stroke-opacity:1"
       d="m 118.13953,133.17532 c -1.02016,2.86059 -7.97142,4.36544 -8.94943,6.77659"
       id="path4003" />
    <path
       style="fill:none;stroke:#f90000;stroke-width:0.264583px;stroke-linecap:butt;stroke-linejoin:miter;stroke-opacity:1"
       d="m 116.73392,137.88728 c -1.19906,1.03963 -3.26364,1.66776 -3.95748,2.66752"
       id="path4005" />
    <path
       style="fill:none;stroke:#ff0000;stroke-width:0.401;stroke-linecap:butt;stroke-linejoin:miter;stroke-opacity:1;stroke-miterlimit:4;stroke-dasharray:none;marker-end:url(#Arrow1Lend)"
       d="m 66.817382,97.486559 c -3.661296,5.077281 -5.166516,11.622051 -6.147199,17.506151"
       id="path4007" />
    <path
       style="fill:none;stroke:#0000ff;stroke-width:0.401;stroke-linecap:butt;stroke-linejoin:miter;stroke-miterlimit:4;stroke-dasharray:none;stroke-opacity:1;marker-end:url(#marker4057)"
       d="m 96.68475,93.544333 c 5.5389,5.506982 8.62329,11.222737 11.22532,18.508417 0.77319,2.16492 1.31038,4.01661 2.07134,6.5481"
       id="path4009"
       sodipodi:nodetypes="csc" />
    <path
       style="fill:none;stroke:#000000;stroke-width:0.365;stroke-linecap:butt;stroke-linejoin:miter;stroke-opacity:1;marker-end:url(#marker4029);stroke-miterlimit:4;stroke-dasharray:none"
       d="m 78.309972,132.16478 c 6.438704,0.61087 13.618479,0.63174 19.911578,-0.26727"
       id="path4011" />
    <text
       xml:space="preserve"
       style="font-size:3.52777px;line-height:1.25;font-family:sans-serif;-inkscape-font-specification:'sans-serif, Normal';fill:#ff0000;fill-opacity:1;stroke-width:0.265;stroke-miterlimit:4;stroke-dasharray:none"
       x="64.673882"
       y="-107.65176"
       id="text4229"
       transform="scale(1,-1)"><tspan
         sodipodi:role="line"
         id="tspan4227"
         x="64.673882"
         y="-107.65176"
         style="fill:#ff0000;fill-opacity:1;stroke-width:0.265;stroke-miterlimit:4;stroke-dasharray:none" /></text>
    <text
       xml:space="preserve"
       style="font-size:3.52777px;line-height:1.25;font-family:sans-serif;-inkscape-font-specification:'sans-serif, Normal';stroke-width:0.264583;fill:#0000ff;fill-opacity:1;"
       x="107.70962"
       y="107.77644"
       id="text881"><tspan
         sodipodi:role="line"
         id="tspan879"
         x="107.70962"
         y="107.77644"
         style="stroke-width:0.264583;fill:#0000ff;fill-opacity:1;">$\varphi_\beta$</tspan></text>
    <text
       xml:space="preserve"
       style="font-size:3.52777px;line-height:1.25;font-family:sans-serif;-inkscape-font-specification:'sans-serif, Normal';stroke-width:0.264583"
       x="78.644058"
       y="139.31424"
       id="text885"><tspan
         sodipodi:role="line"
         id="tspan883"
         x="78.644058"
         y="139.31424"
         style="stroke-width:0.264583">$\Phi_{\alpha\beta}$</tspan></text>
    <text
       xml:space="preserve"
       style="font-size:3.52777px;line-height:1.25;font-family:sans-serif;-inkscape-font-specification:'sans-serif, Normal';stroke-width:0.264583"
       x="65.748299"
       y="-110.62594"
       id="text889"
       transform="scale(1,-1)"><tspan
         sodipodi:role="line"
         id="tspan887"
         x="65.748299"
         y="-110.62594"
         style="stroke-width:0.264583" /></text>
    <text
       xml:space="preserve"
       style="font-size:3.52777px;line-height:1.25;font-family:sans-serif;-inkscape-font-specification:'sans-serif, Normal';stroke-width:0.264583;fill:#ff0000;fill-opacity:1;"
       x="65.146942"
       y="110.04824"
       id="text893"><tspan
         sodipodi:role="line"
         id="tspan891"
         x="65.146942"
         y="110.04824"
         style="stroke-width:0.264583;fill:#ff0000;fill-opacity:1;">$\varphi_\alpha$</tspan></text>
  </g>
</svg>
