<?xml version="1.0" encoding="UTF-8" standalone="no"?>
<svg
   xmlns:dc="http://purl.org/dc/elements/1.1/"
   xmlns:cc="http://creativecommons.org/ns#"
   xmlns:rdf="http://www.w3.org/1999/02/22-rdf-syntax-ns#"
   xmlns:svg="http://www.w3.org/2000/svg"
   xmlns="http://www.w3.org/2000/svg"
   xmlns:sodipodi="http://sodipodi.sourceforge.net/DTD/sodipodi-0.dtd"
   xmlns:inkscape="http://www.inkscape.org/namespaces/inkscape"
   width="210mm"
   height="297mm"
   viewBox="0 0 210 297"
   version="1.1"
   id="svg901"
   inkscape:version="1.0.1 (3bc2e813f5, 2020-09-07)"
   sodipodi:docname="1_7.svg">
  <defs
     id="defs895">
    <marker
       style="overflow:visible"
       id="marker1569"
       refX="0.0"
       refY="0.0"
       orient="auto"
       inkscape:stockid="DotM"
       inkscape:isstock="true">
      <path
         transform="scale(0.4) translate(7.4, 1)"
         style="fill-rule:evenodd;stroke:#000000;stroke-width:1pt;stroke-opacity:1;fill:#000000;fill-opacity:1"
         d="M -2.5,-1.0 C -2.5,1.7600000 -4.7400000,4.0 -7.5,4.0 C -10.260000,4.0 -12.5,1.7600000 -12.5,-1.0 C -12.5,-3.7600000 -10.260000,-6.0 -7.5,-6.0 C -4.7400000,-6.0 -2.5,-3.7600000 -2.5,-1.0 z "
         id="path1567" />
    </marker>
    <marker
       style="overflow:visible"
       id="DotM"
       refX="0.0"
       refY="0.0"
       orient="auto"
       inkscape:stockid="DotM"
       inkscape:isstock="true"
       inkscape:collect="always">
      <path
         transform="scale(0.4) translate(7.4, 1)"
         style="fill-rule:evenodd;stroke:#000000;stroke-width:1pt;stroke-opacity:1;fill:#000000;fill-opacity:1"
         d="M -2.5,-1.0 C -2.5,1.7600000 -4.7400000,4.0 -7.5,4.0 C -10.260000,4.0 -12.5,1.7600000 -12.5,-1.0 C -12.5,-3.7600000 -10.260000,-6.0 -7.5,-6.0 C -4.7400000,-6.0 -2.5,-3.7600000 -2.5,-1.0 z "
         id="path1101" />
    </marker>
    <marker
       style="overflow:visible"
       id="DotS"
       refX="0.0"
       refY="0.0"
       orient="auto"
       inkscape:stockid="DotS"
       inkscape:isstock="true">
      <path
         transform="scale(0.2) translate(7.4, 1)"
         style="fill-rule:evenodd;stroke:#000000;stroke-width:1pt;stroke-opacity:1;fill:#000000;fill-opacity:1"
         d="M -2.5,-1.0 C -2.5,1.7600000 -4.7400000,4.0 -7.5,4.0 C -10.260000,4.0 -12.5,1.7600000 -12.5,-1.0 C -12.5,-3.7600000 -10.260000,-6.0 -7.5,-6.0 C -4.7400000,-6.0 -2.5,-3.7600000 -2.5,-1.0 z "
         id="path1104" />
    </marker>
    <marker
       style="overflow:visible;"
       id="marker1375"
       refX="0.0"
       refY="0.0"
       orient="auto"
       inkscape:stockid="Arrow1Mend"
       inkscape:isstock="true">
      <path
         transform="scale(0.4) rotate(180) translate(10,0)"
         style="fill-rule:evenodd;stroke:#000000;stroke-width:1pt;stroke-opacity:1;fill:#000000;fill-opacity:1"
         d="M 0.0,0.0 L 5.0,-5.0 L -12.5,0.0 L 5.0,5.0 L 0.0,0.0 z "
         id="path1373" />
    </marker>
    <marker
       style="overflow:visible;"
       id="Arrow1Send"
       refX="0.0"
       refY="0.0"
       orient="auto"
       inkscape:stockid="Arrow1Send"
       inkscape:isstock="true">
      <path
         transform="scale(0.2) rotate(180) translate(6,0)"
         style="fill-rule:evenodd;stroke:#000000;stroke-width:1pt;stroke-opacity:1;fill:#000000;fill-opacity:1"
         d="M 0.0,0.0 L 5.0,-5.0 L -12.5,0.0 L 5.0,5.0 L 0.0,0.0 z "
         id="path1052" />
    </marker>
    <marker
       style="overflow:visible;"
       id="marker999"
       refX="0.0"
       refY="0.0"
       orient="auto"
       inkscape:stockid="Arrow1Mend"
       inkscape:isstock="true">
      <path
         transform="scale(0.4) rotate(180) translate(10,0)"
         style="fill-rule:evenodd;stroke:#000000;stroke-width:1pt;stroke-opacity:1;fill:#000000;fill-opacity:1"
         d="M 0.0,0.0 L 5.0,-5.0 L -12.5,0.0 L 5.0,5.0 L 0.0,0.0 z "
         id="path997" />
    </marker>
    <marker
       style="overflow:visible;"
       id="marker1884"
       refX="0.0"
       refY="0.0"
       orient="auto"
       inkscape:stockid="Arrow1Mend"
       inkscape:isstock="true">
      <path
         transform="scale(0.4) rotate(180) translate(10,0)"
         style="fill-rule:evenodd;stroke:#000000;stroke-width:1pt;stroke-opacity:1;fill:#000000;fill-opacity:1"
         d="M 0.0,0.0 L 5.0,-5.0 L -12.5,0.0 L 5.0,5.0 L 0.0,0.0 z "
         id="path1882" />
    </marker>
    <marker
       style="overflow:visible;"
       id="marker1816"
       refX="0.0"
       refY="0.0"
       orient="auto"
       inkscape:stockid="Arrow1Mend"
       inkscape:isstock="true"
       inkscape:collect="always">
      <path
         transform="scale(0.4) rotate(180) translate(10,0)"
         style="fill-rule:evenodd;stroke:#000000;stroke-width:1pt;stroke-opacity:1;fill:#000000;fill-opacity:1"
         d="M 0.0,0.0 L 5.0,-5.0 L -12.5,0.0 L 5.0,5.0 L 0.0,0.0 z "
         id="path1814" />
    </marker>
    <marker
       style="overflow:visible;"
       id="Arrow1Mend"
       refX="0.0"
       refY="0.0"
       orient="auto"
       inkscape:stockid="Arrow1Mend"
       inkscape:isstock="true"
       inkscape:collect="always">
      <path
         transform="scale(0.4) rotate(180) translate(10,0)"
         style="fill-rule:evenodd;stroke:#000000;stroke-width:1pt;stroke-opacity:1;fill:#000000;fill-opacity:1"
         d="M 0.0,0.0 L 5.0,-5.0 L -12.5,0.0 L 5.0,5.0 L 0.0,0.0 z "
         id="path1547" />
    </marker>
  </defs>
  <sodipodi:namedview
     id="base"
     pagecolor="#ffffff"
     bordercolor="#666666"
     borderopacity="1.0"
     inkscape:pageopacity="0.0"
     inkscape:pageshadow="2"
     inkscape:zoom="5.6"
     inkscape:cx="170.98707"
     inkscape:cy="213.17074"
     inkscape:document-units="mm"
     inkscape:current-layer="layer1"
     inkscape:document-rotation="0"
     showgrid="false"
     inkscape:object-paths="true"
     inkscape:window-width="2560"
     inkscape:window-height="1387"
     inkscape:window-x="8"
     inkscape:window-y="1912"
     inkscape:window-maximized="1" />
  <metadata
     id="metadata898">
    <rdf:RDF>
      <cc:Work
         rdf:about="">
        <dc:format>image/svg+xml</dc:format>
        <dc:type
           rdf:resource="http://purl.org/dc/dcmitype/StillImage" />
        <dc:title></dc:title>
      </cc:Work>
    </rdf:RDF>
  </metadata>
  <g
     inkscape:label="Layer 1"
     inkscape:groupmode="layer"
     id="layer1">
    <path
       style="fill:none;stroke:#000000;stroke-width:0.264583px;stroke-linecap:butt;stroke-linejoin:miter;stroke-opacity:1"
       d="m 38.620446,32.205977 c 2.60373,-0.928261 5.507995,-1.505804 8.285355,-1.737251 6.169369,-0.514115 11.758464,1.53666 17.773425,2.138156 8.7694,0.87694 15.219516,-0.415753 23.653353,-1.469983 2.928609,-0.366075 7.120789,-0.335981 9.621702,-1.336347"
       id="path1466" />
    <path
       style="fill:none;stroke:#000000;stroke-width:0.264583px;stroke-linecap:butt;stroke-linejoin:miter;stroke-opacity:1"
       d="M 38.620446,32.205977 C 31.797646,46.582734 26.775174,61.952793 20.980658,76.439084"
       id="path1468" />
    <path
       style="fill:none;stroke:#000000;stroke-width:0.264583px;stroke-linecap:butt;stroke-linejoin:miter;stroke-opacity:1"
       d="M 97.954279,29.800552 C 95.220098,40.034765 87.614621,48.160916 84.457169,58.264758 82.742727,63.750975 82.9918,69.467012 81.91811,74.835466"
       id="path1470" />
    <path
       style="fill:none;stroke:#000000;stroke-width:0.264583px;stroke-linecap:butt;stroke-linejoin:miter;stroke-opacity:1"
       d="M 20.980658,76.439082 C 35.98264,70.525134 51.599382,74.770013 66.817382,76.03818 72.204696,76.487122 76.94736,75.332547 81.918108,74.835466"
       id="path1472" />
    <path
       style="fill:none;stroke:#000000;stroke-width:0.264583px;stroke-linecap:butt;stroke-linejoin:miter;stroke-opacity:1;marker-end:url(#marker1816)"
       d="M 97.152472,57.730217 C 109.91933,57.102688 121.92556,56.784052 135.10474,56.39387"
       id="path1474"
       sodipodi:nodetypes="cc" />
    <path
       style="fill:none;stroke:#000000;stroke-width:0.264583px;stroke-linecap:butt;stroke-linejoin:miter;stroke-opacity:1"
       d="m 145.79552,58.799295 c 5.25697,3.391601 12.55306,5.038892 18.84251,4.409948 4.44911,-0.444912 9.43041,-1.341591 13.89801,-0.935445 2.55095,0.231905 5.0244,0.791642 7.61718,0.668174 4.45576,-0.212178 10.27544,-1.251477 13.22985,-4.944486 3.52402,-4.405024 1.97704,-19.683592 -3.34087,-22.584275 -3.5775,-1.951363 -8.53412,-1.469982 -12.42804,-1.469982 -11.14688,0 -30.61325,0.258376 -36.08138,12.561667 -1.72762,3.887132 -5.23676,8.794899 -1.73726,12.294399 z"
       id="path1476" />
    <path
       style="fill:none;stroke:#000000;stroke-width:0.264583px;stroke-linecap:butt;stroke-linejoin:miter;stroke-opacity:1"
       d="m 159.55991,49.177593 c 6.57971,4.308488 23.70768,6.342023 28.8651,-0.53454"
       id="path1478" />
    <path
       style="fill:none;stroke:#000000;stroke-width:0.264583px;stroke-linecap:butt;stroke-linejoin:miter;stroke-opacity:1"
       d="m 164.47746,51.399667 c 5.64326,-2.697991 17.38886,-6.983868 21.01709,-0.306766"
       id="path1482" />
    <path
       style="fill:none;stroke:#000000;stroke-width:0.264583px;stroke-linecap:butt;stroke-linejoin:miter;stroke-opacity:1"
       d="m 164.9053,38.769797 c 2.38066,-1.693785 5.80851,-2.044572 8.81989,-2.975992 6.65439,-2.058203 14.68022,8.436025 5.07812,10.415979 -3.45345,0.7121 -12.6814,2.827864 -15.10073,-0.165334 -1.88239,-2.328899 -1.17794,-5.580867 1.20272,-7.274653 z"
       id="path1484"
       sodipodi:nodetypes="zsssz" />
    <path
       style="fill:none;stroke:#000000;stroke-width:0.264583px;stroke-linecap:butt;stroke-linejoin:miter;stroke-opacity:1"
       d="m 80.715397,45.70309 c 0.243667,-1.373023 -0.704357,-2.977725 -1.870888,-3.741775 -3.544926,-2.321844 -9.161689,-3.007201 -12.6953,-0.668173 -3.912887,2.590085 -5.022149,8.542136 -4.810853,13.229841 0.108573,2.408747 0.704905,6.097387 3.073598,6.548104 7.336648,1.396025 14.998455,-8.01461 16.303443,-15.367997 z"
       id="path1486"
       sodipodi:nodetypes="aaaaaa" />
    <path
       style="fill:none;stroke:#000000;stroke-width:0.264583px;stroke-linecap:butt;stroke-linejoin:miter;stroke-opacity:1"
       d="m 65.213764,48.242148 c -2.573997,-1.301012 -5.283346,-1.010015 -8.018087,-0.668173 -8.060383,1.007549 -9.911252,11.562587 -1.737252,13.898017 4.547992,1.299424 17.948789,-2.589239 14.432555,-9.621705 -1.000667,-2.001338 -3.316861,-2.587871 -4.677216,-3.608139 z"
       id="path1490" />
    <path
       style="fill:none;stroke:#000000;stroke-width:0.265;stroke-linecap:butt;stroke-linejoin:miter;stroke-miterlimit:4;stroke-dasharray:none;stroke-opacity:1;marker-end:url(#Arrow1Mend);marker-start:url(#marker1569)"
       d="m 65.213764,56.39387 c -1.048343,10.125671 -3.34087,16.897126 -3.34087,27.127857"
       id="path1492"
       sodipodi:nodetypes="cc" />
    <text
       xml:space="preserve"
       style="font-size:3.52777px;line-height:1.25;font-family:sans-serif;-inkscape-font-specification:'sans-serif, Normal';stroke-width:0.264583"
       x="27.395126"
       y="88.599854"
       id="text1496"><tspan
         sodipodi:role="line"
         id="tspan1494"
         x="27.395126"
         y="88.599854"
         style="stroke-width:0.264583">$\varphi(f^{-1}(V) \cap U) \subset \varphi(U) \subset \R^m$</tspan></text>
    <text
       xml:space="preserve"
       style="font-size:3.52777px;line-height:1.25;font-family:sans-serif;-inkscape-font-specification:'sans-serif, Normal';stroke-width:0.264583"
       x="161.56442"
       y="85.526245"
       id="text1500"><tspan
         sodipodi:role="line"
         id="tspan1498"
         x="161.56442"
         y="85.526245"
         style="stroke-width:0.264583">$\psi(V) \subset \R^n$</tspan></text>
    <text
       xml:space="preserve"
       style="font-size:3.52777px;line-height:1.25;font-family:sans-serif;-inkscape-font-specification:'sans-serif, Normal';stroke-width:0.264583"
       x="54.194794"
       y="80.604691"
       id="text1504"><tspan
         sodipodi:role="line"
         id="tspan1502"
         x="54.194794"
         y="80.604691"
         style="stroke-width:0.264583">$\varphi$</tspan></text>
    <text
       xml:space="preserve"
       style="font-size:3.52777px;line-height:1.25;font-family:sans-serif;-inkscape-font-specification:'sans-serif, Normal';stroke-width:0.264583"
       x="170.51794"
       y="70.96006"
       id="text1508"><tspan
         sodipodi:role="line"
         id="tspan1506"
         x="170.51794"
         y="70.96006"
         style="stroke-width:0.264583">$\psi$</tspan></text>
    <text
       xml:space="preserve"
       style="font-size:3.52777px;line-height:1.25;font-family:sans-serif;-inkscape-font-specification:'sans-serif, Normal';stroke-width:0.264583"
       x="70.692787"
       y="46.371265"
       id="text1512"><tspan
         sodipodi:role="line"
         id="tspan1510"
         x="70.692787"
         y="46.371265"
         style="stroke-width:0.264583">$U$</tspan></text>
    <text
       xml:space="preserve"
       style="font-size:3.52777px;line-height:1.25;font-family:sans-serif;-inkscape-font-specification:'sans-serif, Normal';stroke-width:0.264583"
       x="65.748299"
       y="55.057522"
       id="text1516"><tspan
         sodipodi:role="line"
         id="tspan1514"
         x="65.748299"
         y="55.057522"
         style="stroke-width:0.264583">$p$</tspan></text>
    <text
       xml:space="preserve"
       style="font-size:3.52777px;line-height:1.25;font-family:sans-serif;-inkscape-font-specification:'sans-serif, Normal';stroke-width:0.264583"
       x="41.033344"
       y="45.406231"
       id="text1520"><tspan
         sodipodi:role="line"
         id="tspan1518"
         x="41.033344"
         y="45.406231"
         style="stroke-width:0.264583">$f^{-1}(V)$</tspan></text>
    <text
       xml:space="preserve"
       style="font-size:3.52777px;line-height:1.25;font-family:sans-serif;-inkscape-font-specification:'sans-serif, Normal';stroke-width:0.264583"
       x="182.95789"
       y="40.184059"
       id="text1524"><tspan
         sodipodi:role="line"
         id="tspan1522"
         x="182.95789"
         y="40.184059"
         style="stroke-width:0.264583">$V$</tspan></text>
    <text
       xml:space="preserve"
       style="font-size:3.52777px;line-height:1.25;font-family:sans-serif;-inkscape-font-specification:'sans-serif, Normal';stroke-width:0.264583"
       x="169.47041"
       y="42.476288"
       id="text1528"><tspan
         sodipodi:role="line"
         id="tspan1526"
         x="169.47041"
         y="42.476288"
         style="stroke-width:0.264583">$f(p)$</tspan></text>
    <text
       xml:space="preserve"
       style="font-size:3.52777px;line-height:1.25;font-family:sans-serif;-inkscape-font-specification:'sans-serif, Normal';stroke-width:0.264583"
       x="115.19317"
       y="52.25119"
       id="text1532"><tspan
         sodipodi:role="line"
         id="tspan1530"
         x="115.19317"
         y="52.25119"
         style="stroke-width:0.264583">$f$</tspan></text>
    <text
       xml:space="preserve"
       style="font-size:3.52777px;line-height:1.25;font-family:sans-serif;-inkscape-font-specification:'sans-serif, Normal';stroke-width:0.264583"
       x="116.25995"
       y="83.340843"
       id="text1536"><tspan
         sodipodi:role="line"
         id="tspan1534"
         x="116.25995"
         y="83.340843"
         style="stroke-width:0.264583">$\psi \circ f \circ \varphi^{-1}$</tspan></text>
    <path
       style="fill:none;stroke:#000000;stroke-width:0.264583px;stroke-linecap:butt;stroke-linejoin:miter;stroke-opacity:1;marker-end:url(#marker1884);marker-start:url(#DotM)"
       d="m 167.84526,42.094951 c -1.53858,3.290978 -3.26987,7.207912 -4.94448,10.557145 -2.45644,4.912868 2.78951,21.615201 4.81085,25.657876"
       id="path1842" />
    <path
       style="font-variation-settings:normal;opacity:1;vector-effect:none;fill:none;fill-opacity:1;stroke:#000000;stroke-width:0.265;stroke-linecap:butt;stroke-linejoin:miter;stroke-miterlimit:4;stroke-dasharray:none;stroke-dashoffset:0;stroke-opacity:1;stop-color:#000000;stop-opacity:1;marker-end:url(#marker1375)"
       d="m 109.70759,85.422617 45.16815,-0.377976"
       id="path995" />
  </g>
</svg>
