<?xml version="1.0" encoding="UTF-8" standalone="no"?>
<svg
   xmlns:dc="http://purl.org/dc/elements/1.1/"
   xmlns:cc="http://creativecommons.org/ns#"
   xmlns:rdf="http://www.w3.org/1999/02/22-rdf-syntax-ns#"
   xmlns:svg="http://www.w3.org/2000/svg"
   xmlns="http://www.w3.org/2000/svg"
   xmlns:sodipodi="http://sodipodi.sourceforge.net/DTD/sodipodi-0.dtd"
   xmlns:inkscape="http://www.inkscape.org/namespaces/inkscape"
   width="210mm"
   height="297mm"
   viewBox="0 0 210 297"
   version="1.1"
   id="svg849"
   inkscape:version="1.0.1 (3bc2e813f5, 2020-09-07)"
   sodipodi:docname="2_8 rem.svg">
  <defs
     id="defs843">
    <marker
       style="overflow:visible;"
       id="marker1760"
       refX="0.0"
       refY="0.0"
       orient="auto"
       inkscape:stockid="Arrow1Mend"
       inkscape:isstock="true">
      <path
         transform="scale(0.4) rotate(180) translate(10,0)"
         style="fill-rule:evenodd;stroke:#000000;stroke-width:1pt;stroke-opacity:1;fill:#000000;fill-opacity:1"
         d="M 0.0,0.0 L 5.0,-5.0 L -12.5,0.0 L 5.0,5.0 L 0.0,0.0 z "
         id="path1758" />
    </marker>
    <marker
       style="overflow:visible;"
       id="marker1732"
       refX="0.0"
       refY="0.0"
       orient="auto"
       inkscape:stockid="Arrow1Mend"
       inkscape:isstock="true"
       inkscape:collect="always">
      <path
         transform="scale(0.4) rotate(180) translate(10,0)"
         style="fill-rule:evenodd;stroke:#000000;stroke-width:1pt;stroke-opacity:1;fill:#000000;fill-opacity:1"
         d="M 0.0,0.0 L 5.0,-5.0 L -12.5,0.0 L 5.0,5.0 L 0.0,0.0 z "
         id="path1730" />
    </marker>
    <marker
       style="overflow:visible;"
       id="Arrow1Mend"
       refX="0.0"
       refY="0.0"
       orient="auto"
       inkscape:stockid="Arrow1Mend"
       inkscape:isstock="true"
       inkscape:collect="always">
      <path
         transform="scale(0.4) rotate(180) translate(10,0)"
         style="fill-rule:evenodd;stroke:#000000;stroke-width:1pt;stroke-opacity:1;fill:#000000;fill-opacity:1"
         d="M 0.0,0.0 L 5.0,-5.0 L -12.5,0.0 L 5.0,5.0 L 0.0,0.0 z "
         id="path1463" />
    </marker>
  </defs>
  <sodipodi:namedview
     id="base"
     pagecolor="#ffffff"
     bordercolor="#666666"
     borderopacity="1.0"
     inkscape:pageopacity="0.0"
     inkscape:pageshadow="2"
     inkscape:zoom="1.979899"
     inkscape:cx="295.05809"
     inkscape:cy="283.39812"
     inkscape:document-units="mm"
     inkscape:current-layer="layer1"
     inkscape:document-rotation="0"
     showgrid="false"
     inkscape:object-paths="true"
     inkscape:window-width="2560"
     inkscape:window-height="1387"
     inkscape:window-x="8"
     inkscape:window-y="1912"
     inkscape:window-maximized="1" />
  <metadata
     id="metadata846">
    <rdf:RDF>
      <cc:Work
         rdf:about="">
        <dc:format>image/svg+xml</dc:format>
        <dc:type
           rdf:resource="http://purl.org/dc/dcmitype/StillImage" />
        <dc:title></dc:title>
      </cc:Work>
    </rdf:RDF>
  </metadata>
  <g
     inkscape:label="Layer 1"
     inkscape:groupmode="layer"
     id="layer1">
    <path
       style="fill:none;stroke:#0000ff;stroke-width:0.264583px;stroke-linecap:butt;stroke-linejoin:miter;stroke-opacity:1"
       d="M 14.983306,79.358664 C 36.388057,77.967241 57.886805,79.091395 79.261627,79.091395"
       id="path1418" />
    <path
       style="fill:none;stroke:#000000;stroke-width:0.213311;stroke-linecap:butt;stroke-linejoin:miter;stroke-miterlimit:4;stroke-dasharray:none;stroke-opacity:1;marker-end:url(#Arrow1Mend)"
       d="m 45.703089,75.13926 c 1.487564,-3.048704 0.430262,-6.589148 1.336347,-9.524592"
       id="path1420" />
    <path
       style="fill:none;stroke:#000000;stroke-width:0.264583px;stroke-linecap:butt;stroke-linejoin:miter;stroke-opacity:1;marker-end:url(#marker1760)"
       d="m 87.664405,41.961315 c 13.912945,0.195541 27.648375,0.935443 41.560415,0.935443"
       id="path1422" />
    <path
       style="fill:none;stroke:#000000;stroke-width:0.264583px;stroke-linecap:butt;stroke-linejoin:miter;stroke-opacity:1;marker-end:url(#marker1732)"
       d="M 87.384856,76.272548 C 104.20151,65.593901 115.25132,64.319826 132.43205,57.062044"
       id="path1424"
       sodipodi:nodetypes="cc" />
    <path
       style="fill:none;stroke:#000000;stroke-width:0.264583px;stroke-linecap:butt;stroke-linejoin:miter;stroke-opacity:1"
       d="m 199.5167,40.224064 c 2.25512,-9.430919 -15.16697,-16.134095 -22.45064,-17.10525 -8.48967,-1.131956 -16.60396,-4.693969 -25.12334,-2.138156 -8.21285,2.463856 -11.0692,10.0978 -13.76437,17.10525 -3.18321,8.276336 -5.48777,17.362535 1.06907,24.856064 4.25187,4.859276 14.29009,5.345393 20.04522,5.345393 8.16409,0 28.43393,-1.899865 34.07686,-8.953529 3.96039,-4.950492 5.02198,-13.483683 6.1472,-19.109772 z"
       id="path1426" />
    <path
       style="fill:none;stroke:#000000;stroke-width:0.264583px;stroke-linecap:butt;stroke-linejoin:miter;stroke-opacity:1"
       d="m 151.54182,38.219541 c 10.1306,4.37253 24.87365,7.198696 33.40869,-1.336347"
       id="path1428" />
    <path
       style="fill:none;stroke:#000000;stroke-width:0.264583px;stroke-linecap:butt;stroke-linejoin:miter;stroke-opacity:1"
       d="m 156.92194,40.225363 c 2.50737,-0.45951 4.51014,-2.607339 7.18155,-2.941264 4.11322,-0.514152 13.53095,-0.113681 15.4407,3.27615"
       id="path1430" />
    <path
       style="fill:none;stroke:#000000;stroke-width:0.264583px;stroke-linecap:butt;stroke-linejoin:miter;stroke-opacity:1"
       d="m 143.791,48.108515 c 13.7411,-4.874268 26.70792,3.436305 41.02588,-1.336347 3.00754,-1.002514 5.78832,-1.530337 7.88445,-3.207237 -0.79585,4.751231 -2.13816,8.749615 -2.13816,13.764383 -9.67705,-1.619558 -19.0031,1.490058 -28.4642,2.672695 -5.2179,0.652238 -11.06893,0.241205 -16.03617,1.069078 1.34575,-3.807687 -4.82153,-9.56288 -2.2718,-12.962572 z"
       id="path1432" />
    <path
       style="fill:none;stroke:#0000ff;stroke-width:0.265;stroke-linecap:butt;stroke-linejoin:miter;stroke-opacity:1;stroke-miterlimit:4;stroke-dasharray:none"
       d="m 144.5779,54.663382 c 8.95278,-4.584491 19.02665,0.455025 28.21185,-1.075841 5.79272,-0.965457 12.27907,-2.892343 18.32131,-2.042277"
       id="path1434" />
    <path
       style="fill:none;stroke:#000000;stroke-width:0.264583px;stroke-linecap:butt;stroke-linejoin:miter;stroke-opacity:1"
       d="m 14.29892,64.144686 c 0,-16.607118 3.902549,-33.254966 1.737252,-49.845766 12.142204,-4.146477 24.264475,2.036686 36.348655,2.672695 6.896184,0.362957 13.677081,-1.069078 20.312485,-1.069078 0.421396,14.624468 -2.945357,33.248095 -0.133635,47.306706 C 71.98964,61.498099 69.052509,61.690604 67.351921,61.204722 62.43921,59.80109 57.125115,59.225725 51.983923,59.868374 47.86095,60.383746 43.939258,62.428496 39.956794,63.476513 34.246021,64.979348 19.187417,67.07779 14.29892,64.144686 Z"
       id="path1442" />
    <path
       style="fill:none;stroke:#0000ff;stroke-width:0.264583px;stroke-linecap:butt;stroke-linejoin:miter;stroke-opacity:1"
       d="m 15.543181,44.103287 c 10.67544,-7.095318 24.962807,-0.07464 36.307106,0.797994 3.597873,0.276759 7.185088,-0.885701 10.690783,-1.469983 3.233039,-0.53884 6.104668,1.051851 8.982675,1.074587"
       id="path1444" />
    <ellipse
       style="fill:#000000;fill-opacity:1;fill-rule:evenodd;stroke-width:0.432954"
       id="path1448"
       cx="43.498112"
       cy="43.388779"
       rx="1.2027129"
       ry="1.0113722" />
    <ellipse
       style="fill:#000000;fill-opacity:1;fill-rule:evenodd;stroke-width:0.306646"
       id="path1450"
       cx="45.748199"
       cy="78.785156"
       rx="1.3074518"
       ry="1.0412415" />
    <ellipse
       style="fill:#000000;fill-rule:evenodd;stroke-width:0.264583;fill-opacity:1"
       id="path1452"
       cx="169.0273"
       cy="53.633934"
       rx="1.1820484"
       ry="1.3159263" />
    <text
       xml:space="preserve"
       style="font-size:3.52777px;line-height:1.25;font-family:sans-serif;-inkscape-font-specification:'sans-serif, Normal';stroke-width:0.264583"
       x="48.242149"
       y="71.227325"
       id="text1794"><tspan
         sodipodi:role="line"
         id="tspan1792"
         x="48.242149"
         y="71.227325"
         style="stroke-width:0.264583">$\gamma$</tspan></text>
    <text
       xml:space="preserve"
       style="font-size:3.52777px;line-height:1.25;font-family:sans-serif;-inkscape-font-specification:'sans-serif, Normal';stroke-width:0.264583"
       x="60.269276"
       y="26.192413"
       id="text1798"><tspan
         sodipodi:role="line"
         id="tspan1796"
         x="60.269276"
         y="26.192413"
         style="stroke-width:0.264583">$M$</tspan></text>
    <text
       xml:space="preserve"
       style="font-size:3.52777px;line-height:1.25;font-family:sans-serif;-inkscape-font-specification:'sans-serif, Normal';stroke-width:0.264583"
       x="40.892239"
       y="47.707607"
       id="text1802"><tspan
         sodipodi:role="line"
         id="tspan1800"
         x="40.892239"
         y="47.707607"
         style="stroke-width:0.264583">$p$</tspan></text>
    <text
       xml:space="preserve"
       style="font-size:3.52777px;line-height:1.25;font-family:sans-serif;-inkscape-font-specification:'sans-serif, Normal';stroke-width:0.264583"
       x="104.23512"
       y="38.754082"
       id="text1806"><tspan
         sodipodi:role="line"
         id="tspan1804"
         x="104.23512"
         y="38.754082"
         style="stroke-width:0.264583">$f$</tspan></text>
    <text
       xml:space="preserve"
       style="font-size:3.52777px;line-height:1.25;font-family:sans-serif;-inkscape-font-specification:'sans-serif, Normal';stroke-width:0.264583"
       x="105.63977"
       y="72.458054"
       id="text1810"><tspan
         sodipodi:role="line"
         id="tspan1808"
         x="105.63977"
         y="72.458054"
         style="stroke-width:0.264583">$f \circ \gamma$</tspan></text>
    <text
       xml:space="preserve"
       style="font-size:3.52777px;line-height:1.25;font-family:sans-serif;-inkscape-font-specification:'sans-serif, Normal';stroke-width:0.264583"
       x="164.37076"
       y="65.21376"
       id="text1814"><tspan
         sodipodi:role="line"
         id="tspan1812"
         x="164.37076"
         y="65.21376"
         style="stroke-width:0.264583">$f(p)$</tspan></text>
  </g>
</svg>
