<?xml version="1.0" encoding="UTF-8" standalone="no"?>
<svg
   xmlns:dc="http://purl.org/dc/elements/1.1/"
   xmlns:cc="http://creativecommons.org/ns#"
   xmlns:rdf="http://www.w3.org/1999/02/22-rdf-syntax-ns#"
   xmlns:svg="http://www.w3.org/2000/svg"
   xmlns="http://www.w3.org/2000/svg"
   xmlns:sodipodi="http://sodipodi.sourceforge.net/DTD/sodipodi-0.dtd"
   xmlns:inkscape="http://www.inkscape.org/namespaces/inkscape"
   width="210mm"
   height="297mm"
   viewBox="0 0 210 297"
   version="1.1"
   id="svg1846"
   inkscape:version="1.0.1 (3bc2e813f5, 2020-09-07)"
   sodipodi:docname="2_8.svg">
  <defs
     id="defs1840" />
  <sodipodi:namedview
     id="base"
     pagecolor="#ffffff"
     bordercolor="#666666"
     borderopacity="1.0"
     inkscape:pageopacity="0.0"
     inkscape:pageshadow="2"
     inkscape:zoom="1.979899"
     inkscape:cx="378.24856"
     inkscape:cy="227.69589"
     inkscape:document-units="mm"
     inkscape:current-layer="layer1"
     inkscape:document-rotation="0"
     showgrid="false"
     inkscape:window-width="2560"
     inkscape:window-height="1387"
     inkscape:window-x="8"
     inkscape:window-y="1912"
     inkscape:window-maximized="1" />
  <metadata
     id="metadata1843">
    <rdf:RDF>
      <cc:Work
         rdf:about="">
        <dc:format>image/svg+xml</dc:format>
        <dc:type
           rdf:resource="http://purl.org/dc/dcmitype/StillImage" />
        <dc:title></dc:title>
      </cc:Work>
    </rdf:RDF>
  </metadata>
  <g
     inkscape:label="Layer 1"
     inkscape:groupmode="layer"
     id="layer1">
    <path
       style="fill:none;stroke:#000000;stroke-width:0.264583px;stroke-linecap:butt;stroke-linejoin:miter;stroke-opacity:1"
       d="m 172.38884,20.980658 c -8.91767,0 -21.65812,1.359893 -30.20145,3.608138 -12.77478,3.361782 -25.04761,9.666088 -38.35318,11.091684 C 88.976583,37.27237 77.553388,32.244977 63.476512,31.805073 53.14571,31.482236 46.012568,34.257644 36.615925,38.085908 29.564338,40.958775 21.10334,45.709234 18.307962,53.186636 c 12.619543,-1.176213 19.856149,8.262523 28.998744,14.967094 5.191289,3.806945 10.752418,5.941565 15.367998,10.557146 3.846639,3.846639 4.56601,10.052511 7.750817,14.29892 6.475307,-4.478179 12.759778,-10.562582 20.579753,-12.695303 9.548026,-2.604007 20.385896,-0.193774 30.067826,0.26727 5.5688,0.265181 11.03628,-0.293912 16.57071,-0.534539 16.9434,-0.73667 34.70168,-0.486593 49.9794,-8.819895 3.20446,-1.747889 5.51384,-4.836964 8.15172,-6.815373 -2.41455,-5.628184 -9.57083,-7.936294 -14.03165,-11.759859 -8.76236,-7.510592 -13.77885,-20.610201 -9.35444,-31.671439 z"
       id="path2413" />
    <circle
       style="fill:#000000;fill-rule:evenodd;stroke-width:0.265;stroke-miterlimit:4;stroke-dasharray:none;fill-opacity:1;stroke:#000000;stroke-opacity:1"
       id="path2415"
       cx="117.9995"
       cy="52.652096"
       r="1.2027128" />
    <path
       style="fill:none;stroke:#000000;stroke-width:0.264583px;stroke-linecap:butt;stroke-linejoin:miter;stroke-opacity:1"
       d="m 89.134385,61.071087 c 2.934669,-0.421968 5.470377,-2.172245 8.285356,-2.939965 5.763659,-1.571908 11.906209,-2.475423 17.506149,-3.875408 0.78822,-0.197053 1.52294,-0.961919 2.2718,-1.336349 4.08774,-2.043872 11.85546,-4.099761 16.30344,-5.211755 7.53482,-1.883706 15.28006,-3.920416 22.18337,-6.681737"
       id="path2417" />
    <path
       style="fill:none;stroke:#000000;stroke-width:0.264583px;stroke-linecap:butt;stroke-linejoin:miter;stroke-opacity:1"
       d="m 123.87943,71.494599 c 0.25386,-1.100079 0.63768,0.07805 0.4009,-1.737254 -0.561,-4.300995 -3.67118,-8.002982 -4.67722,-12.027128 -1.56968,-6.278731 -4.37499,-12.491762 -7.21627,-18.174327 -0.69176,-1.383519 -0.67033,-3.479895 -1.20272,-4.810852"
       id="path2419" />
    <path
       style="fill:none;stroke:#000000;stroke-width:0.264583px;stroke-linecap:butt;stroke-linejoin:miter;stroke-opacity:1"
       d="m 73.632755,51.182113 c 7.148983,-3.379724 18.311955,-7.88331 26.726955,-5.479023 4.4416,1.269029 8.70336,3.545596 13.22984,4.677214 2.67951,0.66988 4.17541,3.711281 8.01808,4.409948 15.8208,2.876508 32.44289,2.939965 48.50942,2.939965"
       id="path2421" />
    <path
       style="fill:none;stroke:#000000;stroke-width:0.264583px;stroke-linecap:butt;stroke-linejoin:miter;stroke-opacity:1"
       d="m 95.949758,72.029137 c 5.219232,-2.826086 11.497942,-3.881652 15.501632,-8.552625 2.1724,-2.534465 2.93353,-6.675308 5.07812,-8.819893 1.8541,-1.854102 3.52173,-5.109649 5.34539,-7.617182 4.9181,-6.76239 12.07296,-11.93836 19.91158,-13.898015"
       id="path2423" />
    <text
       xml:space="preserve"
       style="font-size:3.52777px;line-height:1.25;font-family:sans-serif;-inkscape-font-specification:'sans-serif, Normal';stroke-width:0.264583"
       x="121.87491"
       y="60.00201"
       id="text2427"><tspan
         sodipodi:role="line"
         id="tspan2425"
         x="121.87491"
         y="60.00201"
         style="stroke-width:0.264583">$p$</tspan></text>
  </g>
</svg>
