<?xml version="1.0" encoding="UTF-8" standalone="no"?>
<svg
   xmlns:dc="http://purl.org/dc/elements/1.1/"
   xmlns:cc="http://creativecommons.org/ns#"
   xmlns:rdf="http://www.w3.org/1999/02/22-rdf-syntax-ns#"
   xmlns:svg="http://www.w3.org/2000/svg"
   xmlns="http://www.w3.org/2000/svg"
   xmlns:sodipodi="http://sodipodi.sourceforge.net/DTD/sodipodi-0.dtd"
   xmlns:inkscape="http://www.inkscape.org/namespaces/inkscape"
   width="210mm"
   height="297mm"
   viewBox="0 0 210 297"
   version="1.1"
   id="svg1737"
   sodipodi:docname="3_3 kozykel.svg"
   inkscape:version="1.0.1 (3bc2e813f5, 2020-09-07)">
  <defs
     id="defs1731" />
  <sodipodi:namedview
     id="base"
     pagecolor="#ffffff"
     bordercolor="#666666"
     borderopacity="1.0"
     inkscape:pageopacity="0.0"
     inkscape:pageshadow="2"
     inkscape:zoom="1.979899"
     inkscape:cx="378.24349"
     inkscape:cy="226.978"
     inkscape:document-units="mm"
     inkscape:current-layer="layer1"
     inkscape:document-rotation="0"
     showgrid="false"
     inkscape:window-width="2560"
     inkscape:window-height="1387"
     inkscape:window-x="8"
     inkscape:window-y="1912"
     inkscape:window-maximized="1" />
  <metadata
     id="metadata1734">
    <rdf:RDF>
      <cc:Work
         rdf:about="">
        <dc:format>image/svg+xml</dc:format>
        <dc:type
           rdf:resource="http://purl.org/dc/dcmitype/StillImage" />
        <dc:title></dc:title>
      </cc:Work>
    </rdf:RDF>
  </metadata>
  <g
     inkscape:label="Layer 1"
     inkscape:groupmode="layer"
     id="layer1">
    <path
       style="font-variation-settings:normal;opacity:1;vector-effect:none;fill:#c2c2c2;fill-opacity:1;stroke:#000000;stroke-width:0.529197;stroke-linecap:butt;stroke-linejoin:miter;stroke-miterlimit:4;stroke-dasharray:none;stroke-dashoffset:0;stroke-opacity:1;stop-color:#000000;stop-opacity:1"
       d="m 47.841246,25.863161 c 7.904332,-4.275156 17.378849,-3.357548 26.459682,-4.315989 2.003861,6.421159 0.09864,13.379833 -4.944486,18.70262 C 58.440906,38.53692 55.957454,33.615135 50.647576,28.571233 49.675829,27.648162 48.118713,26.741728 47.841246,25.863161 Z"
       id="path2300" />
    <path
       style="font-variation-settings:normal;opacity:1;vector-effect:none;fill:none;fill-opacity:1;stroke:#000000;stroke-width:0.529197;stroke-linecap:butt;stroke-linejoin:miter;stroke-miterlimit:4;stroke-dasharray:none;stroke-dashoffset:0;stroke-opacity:1;stop-color:#000000;stop-opacity:1"
       d="m 47.841246,25.863161 c -5.543878,3.660846 -12.708337,7.843486 -13.898017,13.117223 -0.681869,3.022659 0.284287,12.671025 1.469982,15.486785 1.369701,3.252726 7.02473,7.471173 11.759859,8.970486 1.892191,0.599138 3.911441,0.930106 5.746295,1.607916 10.353622,3.824727 26.231095,5.678531 35.947751,0.08463 7.474707,-4.303208 14.985284,-8.328038 18.307964,-14.640514 1.41917,-2.696172 1.09503,-5.931291 0.80181,-8.716605 -1.09133,-10.366582 -3.51442,-18.396535 -21.648834,-20.310538 -3.84936,-0.406282 -8.85812,-0.718109 -12.027128,0.08463"
       id="path2302" />
    <path
       style="font-variation-settings:normal;opacity:1;vector-effect:none;fill:none;fill-opacity:1;stroke:#000000;stroke-width:0.529197;stroke-linecap:butt;stroke-linejoin:miter;stroke-miterlimit:4;stroke-dasharray:none;stroke-dashoffset:0;stroke-opacity:1;stop-color:#000000;stop-opacity:1"
       d="M 74.300928,21.547172 C 70.481335,10.468014 47.575102,1.5642971 30.067821,5.721878 25.352615,6.8416323 20.384796,8.7995257 16.437076,10.799513 12.52089,12.783523 7.0310615,22.485508 6.4144686,25.60928 5.2080233,31.721349 5.8060674,46.075147 13.497111,49.728044 c 7.131758,3.387259 29.427616,-1.356989 38.219543,-2.284936 7.761409,-0.819182 13.443598,-5.200313 17.639786,-7.193317"
       id="path2304" />
    <path
       style="font-variation-settings:normal;opacity:1;vector-effect:none;fill:none;fill-opacity:1;stroke:#000000;stroke-width:0.529197;stroke-linecap:butt;stroke-linejoin:miter;stroke-miterlimit:4;stroke-dasharray:none;stroke-dashoffset:0;stroke-opacity:1;stop-color:#000000;stop-opacity:1"
       d="M 47.841246,25.863161 C 30.540732,1.8512087 108.15311,-7.342158 120.40492,12.830566 c 2.40682,3.962858 5.07168,8.346507 4.54358,12.694086 -0.28053,2.309465 -2.20314,4.041816 -3.87541,6.008534 -6.94343,8.166022 -19.00067,10.644553 -33.408685,9.732133 C 82.963281,40.96761 73.136743,42.045264 69.35644,40.249791"
       id="path2306" />
    <text
       xml:space="preserve"
       style="font-size:3.52777px;line-height:1.25;font-family:sans-serif;-inkscape-font-specification:'sans-serif, Normal';stroke-width:0.264583"
       x="122.54308"
       y="34.344131"
       id="text2310"><tspan
         sodipodi:role="line"
         id="tspan2308"
         x="122.54308"
         y="34.344131"
         style="stroke-width:0.264583">$\Phi_{\beta\alpha}\circ\Phi_{\gamma\beta}\circ\Phi_{\alpha\gamma}=\id$</tspan></text>
  </g>
</svg>
