<?xml version="1.0" encoding="UTF-8" standalone="no"?>
<svg
   xmlns:dc="http://purl.org/dc/elements/1.1/"
   xmlns:cc="http://creativecommons.org/ns#"
   xmlns:rdf="http://www.w3.org/1999/02/22-rdf-syntax-ns#"
   xmlns:svg="http://www.w3.org/2000/svg"
   xmlns="http://www.w3.org/2000/svg"
   xmlns:sodipodi="http://sodipodi.sourceforge.net/DTD/sodipodi-0.dtd"
   xmlns:inkscape="http://www.inkscape.org/namespaces/inkscape"
   width="210mm"
   height="297mm"
   viewBox="0 0 210 297"
   version="1.1"
   id="svg863"
   inkscape:version="1.0.1 (3bc2e813f5, 2020-09-07)"
   sodipodi:docname="5_3b.svg">
  <defs
     id="defs857" />
  <sodipodi:namedview
     id="base"
     pagecolor="#ffffff"
     bordercolor="#666666"
     borderopacity="1.0"
     inkscape:pageopacity="0.0"
     inkscape:pageshadow="2"
     inkscape:zoom="1.4"
     inkscape:cx="437.28819"
     inkscape:cy="338.61374"
     inkscape:document-units="mm"
     inkscape:current-layer="layer1"
     inkscape:document-rotation="0"
     showgrid="false"
     inkscape:window-width="2560"
     inkscape:window-height="1387"
     inkscape:window-x="8"
     inkscape:window-y="1912"
     inkscape:window-maximized="1" />
  <metadata
     id="metadata860">
    <rdf:RDF>
      <cc:Work
         rdf:about="">
        <dc:format>image/svg+xml</dc:format>
        <dc:type
           rdf:resource="http://purl.org/dc/dcmitype/StillImage" />
        <dc:title></dc:title>
      </cc:Work>
    </rdf:RDF>
  </metadata>
  <g
     inkscape:label="Layer 1"
     inkscape:groupmode="layer"
     id="layer1">
    <path
       style="font-variation-settings:normal;opacity:1;vector-effect:none;fill:none;fill-opacity:1;stroke:#000000;stroke-width:0.665001;stroke-linecap:butt;stroke-linejoin:miter;stroke-miterlimit:4;stroke-dasharray:none;stroke-dashoffset:0;stroke-opacity:1;stop-color:#000000;stop-opacity:1"
       d="m 100.91964,81.264881 c -2.320228,-6.597622 -0.959825,-14.226112 4.15774,-19.087798 19.06811,-18.114706 33.0113,6.118127 24.75744,24.001488 -3.12847,6.778342 -15.37866,7.843147 -21.16667,4.535713 -2.01775,-1.153001 -2.57519,-4.29963 -4.34672,-5.480653 -1.25067,-0.833782 -2.84428,-2.383465 -3.40179,-3.96875 z"
       id="path1426"
       sodipodi:nodetypes="ssssss" />
    <path
       style="font-variation-settings:normal;opacity:1;vector-effect:none;fill:none;fill-opacity:1;stroke:#000000;stroke-width:0.665001;stroke-linecap:butt;stroke-linejoin:miter;stroke-miterlimit:4;stroke-dasharray:none;stroke-dashoffset:0;stroke-opacity:1;stop-color:#000000;stop-opacity:1"
       d="M 106.77827,75.028273 C 103.24224,68.65162 99.313263,63.673243 92.604166,62.555058 76.290309,59.836084 68.861632,86.490849 85.044641,91.470238 c 3.896598,1.198951 8.965235,1.484307 12.851191,0.188987 5.171508,-1.723835 12.150598,-10.737351 8.882438,-16.630952 z"
       id="path1428"
       sodipodi:nodetypes="sssss" />
    <path
       style="font-variation-settings:normal;opacity:1;vector-effect:none;fill:none;fill-opacity:1;stroke:#000000;stroke-width:0.665001;stroke-linecap:butt;stroke-linejoin:miter;stroke-miterlimit:4;stroke-dasharray:none;stroke-dashoffset:0;stroke-opacity:1;stop-color:#000000;stop-opacity:1"
       d="m 112.44792,85.422617 c -0.8214,-1.756293 -3.13758,-2.116878 -4.72471,-3.023809 -0.94567,-0.540385 -1.82348,-2.015022 -2.83482,-2.267857 C 95.497903,77.783329 87.790995,90.721515 93.927082,98.084821 103.93019,110.08855 116.77676,94.67846 112.44792,85.422617 Z"
       id="path1430"
       sodipodi:nodetypes="sssss" />
    <path
       style="font-variation-settings:normal;opacity:1;vector-effect:none;fill:none;fill-opacity:1;stroke:#ff0000;stroke-width:0.665001;stroke-linecap:butt;stroke-linejoin:miter;stroke-miterlimit:4;stroke-dasharray:none;stroke-dashoffset:0;stroke-opacity:1;stop-color:#000000;stop-opacity:1"
       d="m 76.540178,92.982143 c 11.054332,3.025107 26.048282,8.053947 32.694942,-3.023811 2.60445,-4.340762 3.09184,-10.13331 2.64583,-14.930059 -0.6493,-6.983118 -3.43272,-10.067938 -9.26041,-15.119046 -11.076958,-9.600869 -25.32238,-6.957201 -34.584826,4.157736 -5.994829,7.193793 -10.26757,23.778062 8.504464,28.91518 z"
       id="path1432"
       sodipodi:nodetypes="ssssss" />
    <path
       style="font-variation-settings:normal;opacity:1;vector-effect:none;fill:none;fill-opacity:1;stroke:#ff0000;stroke-width:0.665001;stroke-linecap:butt;stroke-linejoin:miter;stroke-miterlimit:4;stroke-dasharray:none;stroke-dashoffset:0;stroke-opacity:1;stop-color:#000000;stop-opacity:1"
       d="M 83.910714,90.903273 C 86.662727,71.010268 104.99715,44.263968 128.32292,52.53869 c 9.11895,3.234911 9.56483,11.406434 10.39434,20.410715 2.28142,24.764831 -9.05131,35.056015 -33.45089,33.072915 -12.150495,-0.98754 -22.895799,-3.98608 -21.355656,-15.119047 z"
       id="path1434"
       sodipodi:nodetypes="sssss" />
    <text
       xml:space="preserve"
       style="font-size:3.52777px;line-height:1.25;font-family:sans-serif;-inkscape-font-specification:'sans-serif, Normal';stroke-width:0.264583"
       x="113.39286"
       y="101.10863"
       id="text1438"><tspan
         sodipodi:role="line"
         id="tspan1436"
         x="113.39286"
         y="101.10863"
         style="stroke-width:0.264583">$\Vcal$</tspan></text>
    <text
       xml:space="preserve"
       style="font-size:2.83192px;line-height:1.25;font-family:sans-serif;-inkscape-font-specification:'sans-serif, Normal';fill:#ff0000;fill-opacity:1;stroke-width:0.212394"
       x="176.69884"
       y="65.235481"
       id="text1442"
       transform="scale(0.80275112,1.2457161)"><tspan
         sodipodi:role="line"
         id="tspan1440"
         x="176.69884"
         y="65.235481"
         style="fill:#ff0000;fill-opacity:1;stroke-width:0.212394">$\Ucal$</tspan></text>
  </g>
</svg>
