<?xml version="1.0" encoding="UTF-8" standalone="no"?>
<svg
   xmlns:dc="http://purl.org/dc/elements/1.1/"
   xmlns:cc="http://creativecommons.org/ns#"
   xmlns:rdf="http://www.w3.org/1999/02/22-rdf-syntax-ns#"
   xmlns:svg="http://www.w3.org/2000/svg"
   xmlns="http://www.w3.org/2000/svg"
   xmlns:sodipodi="http://sodipodi.sourceforge.net/DTD/sodipodi-0.dtd"
   xmlns:inkscape="http://www.inkscape.org/namespaces/inkscape"
   width="210mm"
   height="297mm"
   viewBox="0 0 210 297"
   version="1.1"
   id="svg2224"
   inkscape:version="1.0.1 (3bc2e813f5, 2020-09-07)"
   sodipodi:docname="9_5.svg">
  <defs
     id="defs2218">
    <marker
       style="overflow:visible;"
       id="Arrow2Send"
       refX="0.0"
       refY="0.0"
       orient="auto"
       inkscape:stockid="Arrow2Send"
       inkscape:isstock="true">
      <path
         transform="scale(0.3) rotate(180) translate(-2.3,0)"
         d="M 8.7185878,4.0337352 L -2.2072895,0.016013256 L 8.7185884,-4.0017078 C 6.9730900,-1.6296469 6.9831476,1.6157441 8.7185878,4.0337352 z "
         style="fill-rule:evenodd;stroke-width:0.625;stroke-linejoin:round;stroke:#000000;stroke-opacity:1;fill:#000000;fill-opacity:1"
         id="path880" />
    </marker>
  </defs>
  <sodipodi:namedview
     id="base"
     pagecolor="#ffffff"
     bordercolor="#666666"
     borderopacity="1.0"
     inkscape:pageopacity="0.0"
     inkscape:pageshadow="2"
     inkscape:zoom="1.979899"
     inkscape:cx="437.57297"
     inkscape:cy="284.68427"
     inkscape:document-units="mm"
     inkscape:current-layer="layer1"
     inkscape:document-rotation="0"
     showgrid="false"
     inkscape:object-paths="false"
     inkscape:window-width="2560"
     inkscape:window-height="1387"
     inkscape:window-x="8"
     inkscape:window-y="1912"
     inkscape:window-maximized="1" />
  <metadata
     id="metadata2221">
    <rdf:RDF>
      <cc:Work
         rdf:about="">
        <dc:format>image/svg+xml</dc:format>
        <dc:type
           rdf:resource="http://purl.org/dc/dcmitype/StillImage" />
        <dc:title></dc:title>
      </cc:Work>
    </rdf:RDF>
  </metadata>
  <g
     inkscape:label="Layer 1"
     inkscape:groupmode="layer"
     id="layer1">
    <path
       style="font-variation-settings:normal;opacity:1;vector-effect:none;fill:none;fill-opacity:1;stroke:#000000;stroke-width:0.612914;stroke-linecap:butt;stroke-linejoin:miter;stroke-miterlimit:4;stroke-dasharray:none;stroke-dashoffset:0;stroke-opacity:1;stop-color:#000000;stop-opacity:1"
       d="m 38.219543,63.312334 c 8.892391,-0.32839 9.183597,-0.143299 25.390603,-0.908163 16.207006,-0.764864 58.270374,-9.335212 73.900024,-14.530597 15.62965,-5.195385 20.1051,-10.814831 16.03618,-20.320131 C 149.47743,18.048143 129.89716,13.13949 116.39588,11.774122 102.8946,10.408754 77.383868,9.349409 62.941973,11.887642 48.500079,14.425875 35.725045,19.460701 26.192415,23.239671 16.659785,27.018642 8.0271164,29.938899 4.1426774,34.70522 0.25823839,39.47154 1.2103714,39.59602 0.66817339,46.965412 0.12597639,54.334803 4.3814154,64.25118 16.437076,65.24218 c 12.055659,0.991 12.890075,-1.601456 21.782467,-1.929846 z"
       id="path2789"
       sodipodi:nodetypes="zzzzzzzzzzz" />
    <path
       style="font-variation-settings:normal;opacity:1;vector-effect:none;fill:none;fill-opacity:1;stroke:#000000;stroke-width:0.612914;stroke-linecap:butt;stroke-linejoin:miter;stroke-miterlimit:4;stroke-dasharray:none;stroke-dashoffset:0;stroke-opacity:1;stop-color:#000000;stop-opacity:1"
       d="m 60.536548,26.418238 c -8.062431,0.450257 -16.914154,1.59173 -24.722431,3.632652 -15.853905,4.143876 -21.351618,17.745369 -4.142679,23.72574 11.299491,3.926746 53.78639,3.939906 58.26476,-8.741064 0.99129,-2.80695 0.21882,-5.585816 -1.20272,-8.17346 -3.36311,-6.121947 -11.08545,-9.023981 -18.708863,-10.103306 -3.135538,-0.44393 -6.403478,0.1835 -9.488067,-0.340562 z"
       id="path2793" />
    <path
       style="font-variation-settings:normal;opacity:1;vector-effect:none;fill:none;fill-opacity:1;stroke:#000000;stroke-width:0.612914;stroke-linecap:butt;stroke-linejoin:miter;stroke-miterlimit:4;stroke-dasharray:none;stroke-dashoffset:0;stroke-opacity:1;stop-color:#000000;stop-opacity:1"
       d="m 103.83421,33.002417 c 12.51059,-5.8195 25.64178,-7.475107 38.62045,-3.065049"
       id="path2795" />
    <path
       style="font-variation-settings:normal;opacity:1;vector-effect:none;fill:none;fill-opacity:1;stroke:#000000;stroke-width:0.612914;stroke-linecap:butt;stroke-linejoin:miter;stroke-miterlimit:4;stroke-dasharray:none;stroke-dashoffset:0;stroke-opacity:1;stop-color:#000000;stop-opacity:1"
       d="m 109.3471,30.727117 c 4.71458,4.06119 26.16756,3.527581 29.09275,-1.96158"
       id="path2797" />
    <path
       style="font-variation-settings:normal;opacity:1;vector-effect:none;fill:#a0a0ff;fill-opacity:1;stroke:#000000;stroke-width:0.612914;stroke-linecap:butt;stroke-linejoin:miter;stroke-miterlimit:4;stroke-dasharray:none;stroke-dashoffset:0;stroke-opacity:1;stop-color:#000000;stop-opacity:1"
       d="m 66.08239,34.761981 c -2.630376,-1.11617 -9.099091,-1.920333 -15.033911,-1.532524 -5.93482,0.387808 -17.145937,9.113203 -9.220798,11.806109 7.925139,2.692905 24.385079,0.967699 26.726954,-1.021681 1.30839,-1.065235 2.656413,-4.383452 2.138156,-5.335455 -0.603561,-1.025427 -1.980024,-2.800278 -4.610401,-3.916449 z"
       id="path2799"
       sodipodi:nodetypes="zzzccz" />
    <path
       style="font-variation-settings:normal;opacity:1;vector-effect:none;fill:none;fill-opacity:1;stroke:#000000;stroke-width:0.612914;stroke-linecap:butt;stroke-linejoin:miter;stroke-miterlimit:4;stroke-dasharray:none;stroke-dashoffset:0;stroke-opacity:1;stop-color:#000000;stop-opacity:1"
       d="m 72.162773,76.594208 c -20.547779,-0.30704 -29.38168,-0.829557 -44.634012,9.535706 -4.235643,2.878478 -8.039528,5.531656 -10.289875,9.876262 -1.395558,2.694318 -2.975409,7.293784 -1.469983,10.216824 3.059962,5.94145 14.428012,5.79421 20.579752,6.01658 20.901453,0.75555 29.669229,-0.7155 48.910323,-6.01658 5.30511,-1.46159 12.08582,-2.82289 16.303442,-6.13009 9.72344,-7.624511 -3.003412,-19.808339 -12.027132,-22.363499 -3.63272,-1.028645 -7.340502,-0.407074 -10.958046,-1.021684 -1.528776,-0.259733 -4.79115,-0.08926 -6.414469,-0.113519 z"
       id="path2801"
       sodipodi:nodetypes="ssssssssss" />
    <path
       style="font-variation-settings:normal;opacity:1;vector-effect:none;fill:#a0a0ff;fill-opacity:1;stroke:#000000;stroke-width:0.612914;stroke-linecap:butt;stroke-linejoin:miter;stroke-miterlimit:4;stroke-dasharray:none;stroke-dashoffset:0;stroke-opacity:1;stop-color:#000000;stop-opacity:1"
       d="m 72.697311,86.697513 c -7.318466,-2.079617 -41.525785,-1.581014 -39.689524,10.89795 1.093298,7.429887 33.952069,5.311397 40.357697,2.838007 7.889261,-4.100201 17.497414,-11.669992 5.078122,-13.395392 -1.688338,-0.239035 -4.089729,0.130166 -5.746295,-0.340565 z"
       id="path2803"
       sodipodi:nodetypes="ssccs" />
    <path
       style="font-variation-settings:normal;opacity:1;vector-effect:none;fill:none;fill-opacity:1;stroke:#000000;stroke-width:0.612913;stroke-linecap:butt;stroke-linejoin:miter;stroke-miterlimit:4;stroke-dasharray:none;stroke-dashoffset:0;stroke-opacity:1;marker-end:url(#Arrow2Send);stop-color:#000000;stop-opacity:1"
       d="m 55.057522,47.760053 2.004523,35.758893"
       id="path2813" />
    <text
       xml:space="preserve"
       style="font-size:2.11778px;line-height:1.25;font-family:sans-serif;-inkscape-font-specification:'sans-serif, Normal';stroke-width:0.158834"
       x="83.631783"
       y="49.42617"
       id="text2831"
       transform="scale(0.70668742,1.4150528)"><tspan
         sodipodi:role="line"
         id="tspan2829"
         x="83.631783"
         y="49.42617"
         style="stroke-width:0.158834">$\varphi$</tspan></text>
    <text
       xml:space="preserve"
       style="font-size:3.25145px;line-height:1.25;font-family:sans-serif;-inkscape-font-specification:'sans-serif, Normal';stroke-width:0.243859"
       x="38.797791"
       y="103.65058"
       id="text2835"
       transform="scale(1.0849831,0.92167334)"><tspan
         sodipodi:role="line"
         id="tspan2833"
         x="38.797791"
         y="103.65058"
         style="stroke-width:0.243859">$\supp(\varphi^{-1})^*\omega$</tspan></text>
    <text
       xml:space="preserve"
       style="font-size:3.25145px;line-height:1.25;font-family:sans-serif;-inkscape-font-specification:'sans-serif, Normal';stroke-width:0.243859"
       x="33.378418"
       y="92.775978"
       id="text2839"
       transform="scale(1.0849831,0.92167334)"><tspan
         sodipodi:role="line"
         id="tspan2837"
         x="33.378418"
         y="92.775978"
         style="stroke-width:0.243859">$\varphi(U)$</tspan></text>
    <text
       xml:space="preserve"
       style="font-size:3.25145px;line-height:1.25;font-family:sans-serif;-inkscape-font-specification:'sans-serif, Normal';stroke-width:0.243859"
       x="70.328697"
       y="50.58717"
       id="text2843"
       transform="scale(1.0849831,0.92167334)"><tspan
         sodipodi:role="line"
         id="tspan2841"
         x="70.328697"
         y="50.58717"
         style="stroke-width:0.243859">$U$</tspan></text>
    <text
       xml:space="preserve"
       style="font-size:3.25145px;line-height:1.25;font-family:sans-serif;-inkscape-font-specification:'sans-serif, Normal';stroke-width:0.243859"
       x="42.985493"
       y="43.834782"
       id="text2847"
       transform="scale(1.0849831,0.92167334)"><tspan
         sodipodi:role="line"
         id="tspan2845"
         x="42.985493"
         y="43.834782"
         style="stroke-width:0.243859">$\supp \omega$</tspan></text>
    <text
       xml:space="preserve"
       style="font-size:3.14444px;line-height:1.25;font-family:sans-serif;-inkscape-font-specification:'sans-serif, Normal';stroke-width:0.235833"
       x="112.47642"
       y="63.992393"
       id="text2851"
       transform="scale(1.0492729,0.95304092)"><tspan
         sodipodi:role="line"
         id="tspan2849"
         x="112.47642"
         y="63.992393"
         style="stroke-width:0.235833">$\omega_p = f(p)\ dx^1 \wedge \dots \wedge dx^n$</tspan></text>
    <text
       xml:space="preserve"
       style="font-size:2.52811px;line-height:1.25;font-family:sans-serif;-inkscape-font-specification:'sans-serif, Normal';stroke-width:0.189609"
       x="83.143166"
       y="59.061169"
       id="text2867"
       transform="scale(0.8436101,1.1853817)"><tspan
         sodipodi:role="line"
         id="tspan2865"
         x="83.143166"
         y="59.061169"
         style="stroke-width:0.189609">$(\varphi^{-1})^*\omega(x) = f \circ \varphi^{-1}(x)= d(x^1 \circ \varphi^{-1}) \wedge \dots \wedge d(x^n \circ \varphi^{-1})$</tspan></text>
    <text
       xml:space="preserve"
       style="font-size:3.25145px;line-height:1.25;font-family:sans-serif;-inkscape-font-specification:'sans-serif, Normal';stroke-width:0.243859"
       x="105.55465"
       y="86.173332"
       id="text2871"
       transform="scale(1.0849831,0.92167334)"><tspan
         sodipodi:role="line"
         id="tspan2869"
         x="105.55465"
         y="86.173332"
         style="stroke-width:0.243859">Erinnerung: $\bound{x_j}{p} = \varphi_j(p)$</tspan></text>
  </g>
</svg>
