<?xml version="1.0" encoding="UTF-8" standalone="no"?>
<svg
   xmlns:dc="http://purl.org/dc/elements/1.1/"
   xmlns:cc="http://creativecommons.org/ns#"
   xmlns:rdf="http://www.w3.org/1999/02/22-rdf-syntax-ns#"
   xmlns:svg="http://www.w3.org/2000/svg"
   xmlns="http://www.w3.org/2000/svg"
   xmlns:sodipodi="http://sodipodi.sourceforge.net/DTD/sodipodi-0.dtd"
   xmlns:inkscape="http://www.inkscape.org/namespaces/inkscape"
   width="210mm"
   height="297mm"
   viewBox="0 0 210 297"
   version="1.1"
   id="svg1645"
   inkscape:version="1.0.1 (3bc2e813f5, 2020-09-07)"
   sodipodi:docname="9b.svg">
  <defs
     id="defs1639" />
  <sodipodi:namedview
     id="base"
     pagecolor="#ffffff"
     bordercolor="#666666"
     borderopacity="1.0"
     inkscape:pageopacity="0.0"
     inkscape:pageshadow="2"
     inkscape:zoom="3.959798"
     inkscape:cx="403.22283"
     inkscape:cy="168.12646"
     inkscape:document-units="mm"
     inkscape:current-layer="layer1"
     inkscape:document-rotation="0"
     showgrid="false"
     inkscape:window-width="2560"
     inkscape:window-height="1387"
     inkscape:window-x="8"
     inkscape:window-y="1912"
     inkscape:window-maximized="1" />
  <metadata
     id="metadata1642">
    <rdf:RDF>
      <cc:Work
         rdf:about="">
        <dc:format>image/svg+xml</dc:format>
        <dc:type
           rdf:resource="http://purl.org/dc/dcmitype/StillImage" />
        <dc:title></dc:title>
      </cc:Work>
    </rdf:RDF>
  </metadata>
  <g
     inkscape:label="Layer 1"
     inkscape:groupmode="layer"
     id="layer1">
    <path
       style="font-variation-settings:normal;opacity:1;vector-effect:none;fill:none;fill-opacity:1;stroke:#000000;stroke-width:0.534387;stroke-linecap:butt;stroke-linejoin:miter;stroke-miterlimit:4;stroke-dasharray:none;stroke-dashoffset:0;stroke-opacity:1;stop-color:#000000;stop-opacity:1"
       d="M 103.1875,28.265512 C 100.89661,23.69341 97.222736,18.614215 69.736607,16.793777 42.250478,14.97334 36.640061,41.470972 60.287201,46.815551 c 23.64714,5.344578 37.854538,-4.617048 41.955359,-10.129297 3.12834,-4.205064 2.41198,-5.492856 0.94494,-8.420742 z"
       id="path2208"
       sodipodi:nodetypes="sssss" />
    <path
       style="font-variation-settings:normal;opacity:1;vector-effect:none;fill:none;fill-opacity:1;stroke:#000000;stroke-width:0.534387;stroke-linecap:butt;stroke-linejoin:miter;stroke-miterlimit:4;stroke-dasharray:none;stroke-dashoffset:0;stroke-opacity:1;stop-color:#000000;stop-opacity:1"
       d="m 75.784225,30.828346 c 4.202729,-4.347835 16.554361,-11.83216 27.403275,-13.42437 10.84891,-1.59221 22.22793,0.202432 28.72619,2.562835 6.49826,2.360403 6.6123,3.074227 10.58333,5.125669 3.97103,2.051443 11.05475,10.252246 7.9375,12.936211 -3.11725,2.683964 -3.79464,2.045982 -6.80357,3.295073 -3.00894,1.249092 -4.69379,3.097147 -12.6622,3.783231 -7.96841,0.686083 -30.6921,-0.887943 -37.608633,-2.562835 -6.916534,-1.674891 -5.190436,-2.024118 -8.693451,-2.928952 -0.531595,-0.137312 -1.203187,-0.335175 -1.945356,-0.587245 -4.148456,-1.408978 -10.502035,-4.51158 -6.937085,-8.199617 z"
       id="path2210"
       sodipodi:nodetypes="szzzzzzzsss" />
    <text
       xml:space="preserve"
       style="font-size:2.83487px;line-height:1.25;font-family:sans-serif;-inkscape-font-specification:'sans-serif, Normal';stroke-width:0.212616"
       x="65.613632"
       y="42.081161"
       id="text2214"
       transform="scale(1.2444189,0.80358792)"><tspan
         sodipodi:role="line"
         id="tspan2212"
         x="65.613632"
         y="42.081161"
         style="stroke-width:0.212616">$\supp f$</tspan></text>
    <path
       style="font-variation-settings:normal;opacity:1;vector-effect:none;fill:none;fill-opacity:1;stroke:#000000;stroke-width:0.534387;stroke-linecap:butt;stroke-linejoin:miter;stroke-miterlimit:4;stroke-dasharray:none;stroke-dashoffset:0;stroke-opacity:1;stop-color:#000000;stop-opacity:1"
       d="m 100.42652,29.734888 c -1.036222,-0.707281 -4.873062,-1.363128 -7.817629,-1.251278 -2.944566,0.111851 -16.030793,1.347996 -14.098468,5.091413 1.932325,3.743417 15.520826,3.190441 18.508413,2.804591 4.358814,-0.09694 5.767004,-5.054952 3.407684,-6.644726 z"
       id="path2216"
       sodipodi:nodetypes="czzcc" />
  </g>
</svg>
